<?xml version="1.0" standalone="no"?>
<!DOCTYPE svg PUBLIC "-//W3C//DTD SVG 1.1//EN" "http://www.w3.org/Graphics/SVG/1.1/DTD/svg11.dtd" >
<svg xmlns="http://www.w3.org/2000/svg">
<metadata></metadata>
<defs>
<font id="ribbonregular" horiz-adv-x="1228" >
<font-face units-per-em="2048" ascent="1638" descent="-410" />
<missing-glyph horiz-adv-x="500" />
<glyph horiz-adv-x="0" />
<glyph horiz-adv-x="682" />
<glyph unicode=" " />
<glyph unicode="!" horiz-adv-x="933" d="M330 74l135 -135l133 135l-133 133zM330 233v1375l125 -125v-1125zM473 358v1125l125 125v-1375z" />
<glyph unicode="&#x22;" d="M473 1210v394h125v-269zM616 1210v394h125v-269z" />
<glyph unicode="#" horiz-adv-x="1957" d="M84 330l127 125h350l-88 -504l-145 -103l84 482h-328zM84 598h377l69 401h-374l127 125h397l-115 -651h-354zM156 1268h422l94 528l100 -145l-88 -508h-401zM492 -53l88 508h651l-88 -504l-146 -103l84 482h-395l-94 -529zM584 473l114 651h652l-115 -651h-651zM700 1143 l91 504l145 102l-86 -481h397l92 528l103 -145l-90 -508h-652zM733 598h395l72 401h-397zM1159 -53l90 508h402l125 -125h-422l-92 -529zM1251 473l117 651h354l125 -125h-374l-72 -401h375l-125 -125h-400zM1370 1143l90 504l144 102l-84 -481h327l-125 -125h-352z" />
<glyph unicode="$" d="M131 471v125l127 -125q0 -141 97 -241t237 -103v-180l-125 -125v125v73q-148 45 -242 169t-94 282zM131 1157q0 95 37.5 180t103.5 146q86 79 195 106v72v127l125 -127v-178q-140 -5 -237 -97t-97 -229q0 -67 30.5 -128t80 -105t106.5 -75.5t117 -49.5v-654 q-132 3 -225 98t-93 228l127 125v-125q0 -91 66 -147v389q-102 44 -180 116q-156 141 -156 328zM274 1157q0 130 92 217t226 90v-647q-126 39 -222 129.5t-96 210.5zM401 1157q0 -66 66 -129v266q-2 -1 -6 -4t-6 -4q-54 -54 -54 -129zM610 -53v180q140 3 237 95.5t97 230.5 q0 67 -30 128t-80 105t-106.5 75t-117.5 50v653q131 -5 223.5 -99.5t92.5 -225.5l-125 -125v125q0 87 -66 147v-389q101 -46 183 -117q67 -62 109 -146t42 -181q0 -96 -37.5 -181.5t-103.5 -144.5q-81 -78 -193 -109v-71v-125zM610 145v648q59 -19 113.5 -49.5t101 -72.5 t74.5 -99t27 -119q0 -131 -91 -218t-225 -90zM610 1483v178l125 127v-127v-74q147 -43 240.5 -166.5t93.5 -281.5v-125l-125 125q0 139 -98 239t-236 105zM735 313q2 2 5 5.5t5 5.5q56 53 56 129q0 66 -66 129v-269z" />
<glyph unicode="%" horiz-adv-x="2299" d="M152 0l1794 1794v-176l-1618 -1618h-176zM152 1366q0 96 36 182t101 150q134 137 332 137q195 0 329 -137q65 -64 101 -150t36 -182q0 -195 -137 -332t-329 -137q-195 0 -332 137t-137 332zM276 1366q0 -141 101.5 -241.5t243.5 -100.5q141 0 241.5 100.5t100.5 241.5 q0 142 -100.5 243t-241.5 101q-143 0 -244 -101t-101 -243zM295 1366q0 135 95.5 230.5t230.5 95.5q134 0 228.5 -95.5t94.5 -230.5t-94.5 -229.5t-228.5 -96.5q-135 2 -230.5 96.5t-95.5 229.5zM340 -12l1618 1618h178l-1796 -1796v178zM420 1366q0 -81 57 -141 q58 -58 144 -58q83 0 141 58q57 60 57 141q0 84 -57 141q-60 60 -141 60q-84 0 -144 -60q-57 -57 -57 -141zM1198 238q0 197 137 331q64 65 150 101.5t182 36.5q194 0 332 -138q137 -137 137 -331q0 -192 -137 -332q-140 -137 -332 -137q-95 0 -181.5 36.5t-150.5 100.5 q-137 137 -137 332zM1323 238q0 -141 101 -241.5t243 -100.5q141 0 241.5 100.5t100.5 241.5q0 142 -100.5 243t-241.5 101q-143 0 -243.5 -101t-100.5 -243zM1341 238q0 135 95.5 230t230.5 95t230.5 -95t95.5 -230t-95.5 -230.5t-230.5 -95.5t-230.5 95.5t-95.5 230.5z M1466 238q0 -82 60 -142q57 -57 141 -57q81 0 141 57q58 58 58 142q0 86 -58 141q-59 59 -141 59q-85 0 -141 -59q-60 -57 -60 -141z" />
<glyph unicode="&#x26;" horiz-adv-x="1517" d="M160 545q0 161 88 311q78 131 207 217l-27 45q-71 122 -37 254q23 88 86 151.5t148.5 88t173.5 2.5q133 -35 204 -154.5t37 -253.5q-35 -136 -153 -205q-28 -17 -58 -32l277 -467q10 45 10 82q0 85 -45 159l-63 107l172 -43q61 -107 61 -223q0 -91 -35.5 -176.5 t-101.5 -149.5l-451 762q23 12 61.5 29.5t62 30t46.5 28.5q74 48 95 129q22 84 -22 158t-128 96t-158 -22t-96 -128q-21 -87 23 -159l92 -154q-8 -5 -24.5 -14t-31 -17t-28.5 -16q-119 -71 -189.5 -189t-70.5 -247q0 -113 57 -209q65 -108 182.5 -169t249.5 -61 q139 0 250 66q26 15 78 57l110 -188l-43 -172l-108 180q-128 -67 -287 -67q-163 0 -305 71q-153 80 -236 219q-73 123 -73 273zM303 545q0 123 68 238t182 182q12 6 41 23t43 24l63 -107l154 -260l238 -399q-33 -33 -78 -58q-105 -63 -240 -63q-128 0 -242 59t-176 162 q-53 90 -53 199zM428 545q0 -76 37 -135q43 -73 127 -117q88 -43 182 -43q85 0 150 33l-332 559q-77 -60 -113 -123q-51 -83 -51 -174zM530 1335q20 77 89 118t145 22q77 -20 117 -89t20 -145q-18 -76 -88 -117q-22 -16 -46 -28t-60.5 -29t-63.5 -31l-63 109l-29 47 q-39 65 -21 143zM651 1305q-6 -25 8 -50l33 -55q1 1 4 3t4 3q36 16 50 27q20 11 30 39q6 27 -8 50.5t-41 29.5q-26 7 -49 -6.5t-31 -40.5zM1114 242q70 67 108 156.5t38 185.5q0 125 -66 231v2l45 170l64 -106q81 -138 81 -297q0 -162 -77 -295q-26 -43 -39 -60l131 -223 l-170 43z" />
<glyph unicode="'" d="M473 1210v394h125v-269z" />
<glyph unicode="(" horiz-adv-x="970" d="M152 803q0 325 124 618t345 514l88 88v-176q-204 -206 -318.5 -475t-114.5 -569t114.5 -569.5t318.5 -473.5v-178l-88 88v2q-221 221 -345 514t-124 617zM295 803q0 297 112.5 563t313.5 467l2 2h176l-88 -90q-185 -185 -288 -427.5t-103 -514.5t103 -514.5t288 -427.5 l88 -88h-178q-201 202 -313.5 468.5t-112.5 561.5z" />
<glyph unicode=")" horiz-adv-x="946" d="M51 -227l88 88q185 185 288 427.5t103 514.5t-103 514.5t-288 427.5l-88 88h176q202 -200 315 -466.5t113 -563.5q0 -295 -113 -561.5t-315 -468.5h-176zM242 -240q204 204 318 473.5t114 569.5t-114 569.5t-318 474.5v176l88 -88q221 -221 345 -514t124 -618 q0 -324 -124 -617t-345 -516l-88 -88v178z" />
<glyph unicode="*" horiz-adv-x="1443" d="M127 670l125 125h448l-317 -318h-176l190 193h-270zM127 938h270l-190 190h176l317 -315h-448zM397 289v176l316 317v-448l-125 -125v270zM397 1141v178l191 -191v269l125 -125v-447zM731 334v448l316 -317v-176l-191 190v-270zM731 825v447l125 127v-271l191 191v-178z M743 795h447l127 -125h-270l190 -193h-178zM743 813l316 315h178l-190 -190h270l-127 -125h-447z" />
<glyph unicode="+" horiz-adv-x="1413" d="M102 670l125 125h461v-461l-127 -125v461h-459zM102 938h459v461l127 -127v-459h-461zM705 334v461h460l125 -125h-459v-461zM705 813v459l126 127v-461h459l-125 -125h-460z" />
<glyph unicode="," horiz-adv-x="370" d="M70 0v268h268v-268l-125 -125v125h-143z" />
<glyph unicode="-" horiz-adv-x="1460" d="M139 670l125 125h938l125 -125h-1188zM139 938h1188l-125 -125h-938z" />
<glyph unicode="." horiz-adv-x="411" d="M66 0h268v268h-268v-268z" />
<glyph unicode="/" horiz-adv-x="2084" d="M57 0l1794 1794v-176l-1615 -1618h-179zM248 -12l1618 1618h176l-1794 -1796v178z" />
<glyph unicode="0" d="M141 469v668q0 193 138 331t331 138q194 0 332 -138q137 -137 137 -331v-668q0 -192 -137 -332q-140 -137 -332 -137q-191 0 -331 137q-138 141 -138 332zM266 469q0 -143 101 -243.5t243 -100.5t243 100.5t101 243.5v668q0 143 -101 243.5t-243 100.5t-243 -100.5 t-101 -243.5v-668zM285 469v668q0 135 95 230t230 95t230.5 -95t95.5 -230v-668q0 -135 -95.5 -230.5t-230.5 -95.5t-230 95.5t-95 230.5zM410 469q0 -82 59 -141q60 -60 141 -60q82 0 142 60q59 59 59 141v668q0 85 -59 141q-59 59 -142 59q-82 0 -141 -59 q-59 -56 -59 -141v-668z" />
<glyph unicode="1" d="M463 0v1337l125 125v-1337zM606 125v1356l125 125v-1606z" />
<glyph unicode="2" d="M137 0v279q0 138 68 249q56 91 157 164q66 47 181 105t145 77q86 50 105 93q14 25 14 55v115q0 85 -59 141q-59 59 -142 59q-82 0 -141 -59q-59 -56 -59 -141v-125l-125 125q0 135 95 230t230 95t230.5 -95t95.5 -230v-115q0 -49 -19 -92t-40.5 -70t-73 -62.5t-78.5 -50 t-96 -49.5q-15 -8 -23 -12q-50 -25 -84 -44t-78 -48t-72 -59t-54.5 -68.5t-39 -85.5t-12.5 -102v-154h682l125 -125h-932zM137 1012v125q0 194 137 331q138 138 332 138t332 -138q137 -137 137 -331v-115q0 -73 -25.5 -140t-68.5 -114q-26 -31 -61 -59.5t-59 -43.5t-66 -40 q-32 -17 -94.5 -49t-95.5 -49.5t-72.5 -43.5t-61.5 -49q-34 -36 -49 -68.5t-16 -86.5v-11h663l-125 -125h-663v136q0 62 19.5 115.5t47 90.5t75.5 73.5t87 59t100 52.5q146 74 196 109q134 94 143 224q1 9 1 19v115q0 143 -101 243.5t-243 100.5t-243 -100.5t-101 -243.5z " />
<glyph unicode="3" d="M150 469v125l124 -125q0 -143 101 -243.5t243 -100.5q143 0 244 101t101 243q0 75 -31 142.5t-86 115.5q-27 23 -41 31q-56 34 -109 45q84 21 148 76q56 48 87.5 115t31.5 143q0 142 -101 243t-244 101q-142 0 -243 -100.5t-101 -243.5l-124 -125v125q0 194 137 331 q138 138 331 138q194 0 332 -138q137 -137 137 -331q0 -95 -36.5 -180.5t-100.5 -149.5l-4 -4q1 0 2 -1t2 -1q137 -140 137 -332t-137 -332q-140 -137 -332 -137q-191 0 -331 137q-137 140 -137 332zM293 469l125 125v-125q0 -82 59 -141q60 -60 141 -60q82 0 142 60 q59 59 59 141t-59 141q-60 60 -142 60h-124l124 125q135 0 230.5 -95.5t95.5 -230.5t-95.5 -230.5t-230.5 -95.5t-230 95.5t-95 230.5zM293 1137q0 135 95 230t230 95t230.5 -95t95.5 -230q0 -133 -95.5 -229t-230.5 -97l-124 127h124q82 0 142 57q59 59 59 142 q0 85 -59 141q-59 59 -142 59q-82 0 -141 -59q-59 -56 -59 -141v-125z" />
<glyph unicode="4" horiz-adv-x="1474" d="M92 545l1061 1061v-940h270l-125 -125h-270v764l-780 -783h762v-397l-125 -125v397h-647zM291 541l719 719v-719h-719zM594 666h291v292zM1028 125v397h270l125 -125h-270v-397z" />
<glyph unicode="5" d="M135 469v125l125 -125q0 -143 101 -243.5t243 -100.5t243 100.5t101 243.5v170q0 143 -101 243.5t-243 100.5q-94 0 -182 -32t-143 -91v602h663l125 -125h-664v-260q98 31 201 31q192 0 332 -137q64 -64 100.5 -150.5t36.5 -181.5v-170q0 -192 -137 -332 q-140 -137 -332 -137t-332 137q-137 140 -137 332zM135 715v891h932l-125 -125h-682v-641zM279 469l124 125v-125q0 -81 60 -141t141 -60t141 60t60 141v170q0 81 -60 141t-141 60q-55 0 -101 -24.5t-68 -50.5t-32 -50l-120 123q31 35 63 55q110 72 258 72 q135 0 230.5 -95.5t95.5 -230.5v-170q0 -135 -95.5 -230.5t-230.5 -95.5t-230 95.5t-95 230.5z" />
<glyph unicode="6" d="M162 598l276 963l35 120l84 -153l-274 -963v-2q-15 -47 -15 -94q0 -114 68.5 -206t179.5 -124q46 -14 96 -14q114 0 206 68.5t124 181.5q14 54 14 94q0 114 -68 206t-181 124q-43 14 -95 14q-84 0 -159.5 -40t-122.5 -109l243 858l158 86l-35 -121l-159 -555 q109 16 204 -12q92 -26 164.5 -85t116.5 -139q94 -169 41 -356q-27 -92 -85.5 -165t-137.5 -116q-173 -96 -359 -41q-90 26 -162 85t-118 139q-94 174 -39 356zM287 469q0 43 12 90q30 106 118 171t195 65q40 0 90 -13q106 -30 171 -118t65 -195q0 -43 -12 -90 q-32 -106 -119.5 -171t-194.5 -65q-40 0 -90 13q-106 30 -170.5 118t-64.5 195zM420 524q-24 -79 16 -151q40 -73 121 -97q84 -22 152 19q72 40 96 119q21 79 -19 151q-41 74 -118 97q-86 23 -152 -19q-72 -40 -96 -119z" />
<glyph unicode="7" d="M135 1337l125 125h664v-209q0 -49 -11 -89t-25 -65t-43.5 -51.5t-48 -39.5t-58.5 -37q-14 -9 -21 -13q-39 -25 -64 -42.5t-57 -50.5t-50 -68t-31 -88.5t-13 -118.5v-465l-125 -125v590q-3 215 112 346q24 28 55.5 54t48.5 37.5t55.5 34.5t41.5 25q60 39 76 60 q12 15 17 23.5t9.5 29.5t4.5 53v84h-662zM135 1606h932v-353q0 -93 -33 -180q-32 -75 -90 -129q-31 -29 -65.5 -53.5t-70.5 -46t-50 -31.5q-49 -30 -72 -63q-41 -59 -41 -160v-590l-125 125v465q0 78 16 137t49.5 99.5t63 63.5t78.5 52q93 56 126 88q88 83 87 223v228h-680z " />
<glyph unicode="8" d="M150 469q0 192 137 332q1 0 2 1t2 1l-4 4q-64 64 -100.5 149.5t-36.5 180.5q0 194 137 331q138 138 331 138q194 0 332 -138q137 -137 137 -331q0 -95 -36.5 -180.5t-100.5 -149.5l-4 -4q1 0 2 -1t2 -1q137 -140 137 -332q0 -95 -36.5 -181.5t-100.5 -150.5 q-137 -137 -332 -137q-194 0 -331 137q-64 64 -100.5 150.5t-36.5 181.5zM274 469q0 -143 101 -243.5t243 -100.5q143 0 244 101t101 243q0 121 -75.5 214t-191.5 120q115 27 191 120.5t76 213.5q0 142 -101 243t-244 101q-142 0 -243 -100.5t-101 -243.5q0 -120 76 -213.5 t191 -120.5q-116 -27 -191.5 -120t-75.5 -214zM293 469q0 134 94 229.5t227 96.5h4h5q133 -1 227 -96.5t94 -229.5q0 -135 -95.5 -230.5t-230.5 -95.5t-230 95.5t-95 230.5zM293 1137q0 135 95 230t230 95t230.5 -95t95.5 -230q0 -133 -93.5 -227.5t-227.5 -96.5h-5h-4 q-134 2 -227.5 96.5t-93.5 227.5zM418 469q0 -85 59 -141q60 -60 141 -60q82 0 142 60q59 56 59 141q0 82 -59 141q-60 57 -142 60v-2v2q-84 -3 -141 -60q-59 -59 -59 -141zM418 1137q0 -83 59 -142q60 -57 141 -57q82 0 142 57q59 59 59 142q0 85 -59 141q-59 59 -142 59 q-82 0 -141 -59q-59 -56 -59 -141z" />
<glyph unicode="9" d="M129 1137q0 194 137 331q138 138 332 138q192 0 326 -131v-228q-34 103 -124 168.5t-202 65.5q-142 0 -243 -100.5t-101 -243.5q0 -141 101 -241.5t243 -100.5q113 0 202.5 65t123.5 168v-903l-125 -125v713q-88 -42 -201 -45q-196 3 -332 139q-64 64 -100.5 149.5 t-36.5 180.5zM272 1137q0 135 95.5 230t230.5 95t229.5 -94.5t96.5 -228.5v-2q0 -134 -95.5 -229t-230.5 -95t-230.5 95t-95.5 229zM397 1137q0 -82 60 -142q60 -57 141 -57t141 57q60 60 60 142q0 84 -60 141q-59 59 -141 59t-141 -59q-60 -57 -60 -141zM942 125v1012v2 v331l125 125v-1595z" />
<glyph unicode=":" d="M463 0h268v268h-268v-268zM463 526h268v269h-268v-269z" />
<glyph unicode=";" d="M473 0v268h268v-268l-125 -125v125h-143zM473 526h268v269h-268v-269z" />
<glyph unicode="&#x3c;" horiz-adv-x="1638" d="M96 817l1301 752l-45 -170l-1004 -582l1004 -579l45 -170zM383 817l977 -563l172 47l-897 516l897 520l-172 45z" />
<glyph unicode="=" horiz-adv-x="1413" d="M102 477h1190l-125 127h-938zM102 748h1190l-125 -127h-938zM102 860l127 125h938l125 -125h-1190zM102 1128h1190l-125 -124h-938z" />
<glyph unicode="&#x3e;" horiz-adv-x="1628" d="M119 313l172 -45l977 566l-977 563l-172 -47l897 -516zM254 82l45 170l1004 582l-1004 579l-45 170l1300 -749z" />
<glyph unicode="?" d="M180 973q-70 181 6 358q38 88 105.5 152.5t152.5 97.5q82 34 176.5 34t182.5 -38t152.5 -105.5t97.5 -152.5q35 -87 32 -178q0 -76 -17 -140t-51.5 -116t-60.5 -81.5t-71 -72.5q-42 -41 -61 -62t-43.5 -58.5t-34 -80t-9.5 -98.5v-78v-125l-125 125v78q0 60 12 113t26 87 t44 74t47.5 58t55.5 55q36 36 50.5 51.5t42 50.5t39 62t22 69t10.5 89q2 103 -54 190.5t-153 128.5q-64 28 -133.5 28.5t-130 -23.5t-111 -71.5t-78.5 -111.5q-56 -132 -2 -262v-2l-72 -162zM315 1026q-51 127 4 248q52 124 177.5 174t248.5 -4q92 -39 145.5 -122.5 t51.5 -180.5q0 -55 -11.5 -100t-38 -83.5t-48 -62t-60.5 -61.5q-37 -36 -57 -57t-49.5 -61.5t-44.5 -76.5t-27 -90.5t-12 -116.5v-78l-125 -125v125v78q0 77 15.5 146t35.5 115t56 95.5t58.5 73.5t61.5 62q69 66 95 108t26 109q0 43 -14 78q-27 74 -107 110q-71 32 -153 2 q-79 -30 -109 -106q-34 -75 -2 -154l45 -117zM469 66l133 -136l135 136l-135 135z" />
<glyph unicode="@" horiz-adv-x="1906" d="M131 813q0 164 62 313t178 265q115 115 263.5 174t313.5 59q167 0 316 -59t264 -174q116 -116 177.5 -265t61.5 -313q0 -146 -51 -285l-6 -12q-52 -118 -149 -190q-101 -72 -215 -72h-3q-161 0 -276 121q-15 15 -39 47q-38 -12 -80 -12q-110 0 -189 79t-79 189v270 q0 110 79 189.5t189 79.5q113 0 191 -78l88 86l-8 -547q0 -74 43 -117q36 -39 81 -39q32 0 58 21q41 32 63 82q33 82 33 188q0 149 -73.5 276.5t-200 202t-275.5 74.5q-148 0 -274 -74.5t-199.5 -202t-73.5 -276.5t73.5 -276t199.5 -201t274 -74h127l-127 -123 q-182 0 -337.5 90.5t-246 246t-90.5 337.5t90.5 337.5t246 246t337.5 90.5q137 0 262.5 -53.5t216 -144t144 -215t53.5 -261.5q0 -120 -41 -229q-39 -95 -103.5 -141t-136.5 -46q-101 0 -174 76q-75 82 -75 205h-2v270q0 60 -42 102t-102 42q-58 0 -99.5 -42t-43.5 -102 v-270q0 -58 42.5 -100.5t100.5 -42.5q43 0 78 22.5t53 60.5q19 -96 78 -155q81 -84 186 -84q78 0 146.5 49.5t109.5 149.5q41 112 41 235q0 188 -92.5 347t-252 252t-347.5 93q-187 0 -346 -93t-251.5 -252.5t-92.5 -346.5t92.5 -346.5t251.5 -252.5t346 -93l127 -119h-127 q-165 0 -313 59t-264 175t-178 264.5t-62 312.5zM823 678v270q0 52 37 88.5t88 36.5q53 0 90 -36.5t37 -88.5v-270q0 -51 -37.5 -88t-89.5 -37q-51 0 -88 37t-37 88zM940 678q0 -8 8 -8q10 0 10 8v270q0 8 -10 8q-8 0 -8 -8v-270z" />
<glyph unicode="A" horiz-adv-x="1581" d="M141 4l158 387h-158l127 125h215l-178 -442zM141 659h267l380 949l383 -949h267l-127 -124h-224l-299 737l-296 -737h-224zM322 68l182 448h571l182 -448l-69 -164l-197 487h-403l-197 -487zM510 535l278 690l281 -690h-559zM696 659h187l-95 230zM1096 516h217l125 -125 h-158l158 -387l-164 70z" />
<glyph unicode="B" d="M141 0v1606h469q194 0 332 -138q64 -64 100.5 -150t36.5 -181q0 -192 -137 -332q-1 0 -2 -1t-2 -1l4 -4q137 -137 137 -332q0 -95 -36.5 -180.5t-100.5 -149.5q-137 -137 -332 -137h-469zM266 125h344q142 0 243 100.5t101 243.5q0 120 -75.5 214t-190.5 120 q115 26 190.5 120t75.5 214q0 143 -101 243.5t-243 100.5h-344v-1356zM285 143v652h329q134 -3 228 -98t94 -228q0 -135 -95.5 -230.5t-230.5 -95.5h-325zM285 811v651h325q135 0 230.5 -95t95.5 -230q0 -86 -48.5 -162t-122.5 -119.5t-151 -44.5h-329zM410 268h200 q82 0 142 60q59 56 59 139q0 84 -59 143q-58 58 -140 58h-202v-400zM410 938h200q85 0 142 57q59 59 59 142q0 85 -59 141q-59 59 -142 59h-200v-399z" />
<glyph unicode="C" d="M150 469v670q0 191 137 331q141 138 331 138q194 0 332 -138q137 -137 137 -331v-127l-124 127q0 141 -101.5 241.5t-243.5 100.5q-141 0 -241.5 -100.5t-100.5 -241.5v-670q0 -141 100.5 -241.5t241.5 -100.5q142 0 243.5 100.5t101.5 241.5l124 127v-127 q0 -195 -137 -332t-332 -137q-191 0 -331 137q-137 140 -137 332zM293 469v670q0 134 95 229.5t230 95.5t230.5 -95.5t95.5 -229.5l-125 -125v125q0 82 -59 141q-57 57 -142 57q-81 0 -141 -57q-59 -62 -59 -141v-670q0 -79 59 -141q58 -58 141 -58q87 0 142 58 q59 59 59 141v127l125 -127q0 -135 -95.5 -229.5t-230.5 -96.5q-135 2 -230 96.5t-95 229.5z" />
<glyph unicode="D" d="M152 0v1606h469q193 0 331 -138q65 -65 101.5 -150.5t36.5 -180.5v-668q0 -95 -37 -181.5t-101 -150.5q-140 -137 -331 -137h-469zM276 125h345q143 0 243.5 100.5t100.5 243.5v668q0 143 -100.5 243.5t-243.5 100.5h-345v-1356zM295 143v1319h326q135 0 230 -95t95 -230 v-668q0 -135 -95 -230.5t-230 -95.5h-326zM420 268h201q81 0 141 60q56 53 59 141v668q-3 88 -59 141q-59 59 -141 59h-201v-1069z" />
<glyph unicode="E" d="M152 0v1608h933l-127 -127h-679v-1354h679l127 -127h-933zM297 143v672h537l124 -125h-536v-420h663l-127 -127h-661zM297 834v630h661l127 -127h-663v-379h536l-124 -124h-537z" />
<glyph unicode="F" d="M147 0v1606h932l-125 -125h-682v-1356zM291 125v688h538l125 -125h-538v-688zM291 831v631h663l125 -125h-663v-381h538l-125 -125h-538z" />
<glyph unicode="G" d="M139 467v670q0 194 137 331q65 65 150 101.5t180 36.5q194 0 332 -138q137 -137 137 -331v-125l-125 125q0 143 -101 243.5t-243 100.5q-141 0 -241.5 -101t-100.5 -243v-670q0 -141 100.5 -241.5t241.5 -100.5q142 0 243 100.5t101 241.5v240h-248l-124 124h497v-364 q0 -196 -137 -330q-134 -137 -332 -137q-196 0 -330 137q-137 134 -137 330zM283 467v670q0 135 94.5 230t228.5 95q135 0 230.5 -95t95.5 -230l-125 -125v125q0 81 -57 141q-59 59 -144 59q-82 0 -141 -59q-57 -60 -57 -141v-670q0 -82 57 -139q60 -60 141 -60q84 0 144 60 q57 57 57 139v96h-229l124 125h230v-221q0 -134 -95.5 -229t-230.5 -95q-133 0 -228 95t-95 229z" />
<glyph unicode="H" d="M152 0v1606l124 -125v-1356zM295 125v690h645v-690l-125 -125v688h-395v-688zM295 831v650l125 125v-650h395v650l125 -125v-650h-645zM958 125v1356l125 125v-1606z" />
<glyph unicode="I" horiz-adv-x="966" d="M141 0l125 125h436l125 -125h-686zM141 268h209v1069h-209l125 127h209v-2v-1319h-209zM141 1606h686l-125 -125h-436zM494 143v1321h208l125 -127h-209v-1069h209l-125 -125h-208z" />
<glyph unicode="J" d="M150 469v125l126 -125q0 -142 100.5 -243t241.5 -101q143 0 244 101t101 243v1012l124 125v-1137q0 -198 -137 -332q-134 -137 -332 -137q-194 0 -331 137t-137 332zM293 469l127 125v-125q0 -84 57 -141q60 -60 141 -60q85 0 142 60q59 56 59 141v1137l125 -125v-1012 q0 -135 -95.5 -230.5t-230.5 -95.5t-230 95.5t-95 230.5z" />
<glyph unicode="K" d="M150 0v1608l124 -127v-1356zM293 125v651l598 -598v-178l-473 473v-473zM293 801l610 610h178l-610 -610l610 -611h-178zM293 827v654l125 127v-480l473 474v-177z" />
<glyph unicode="L" d="M156 0v1612l125 -125v-1362h682l124 -125h-931zM299 143v1344l125 125v-1344h663l-124 -125h-664z" />
<glyph unicode="M" horiz-adv-x="1570" d="M100 0v1606l682 -963l684 963v-1606l-127 125v1087l-557 -786l-557 786v-1087zM244 125v1030l538 -760l541 760v-1030l-127 -125v762l-414 -584l-413 584v-762z" />
<glyph unicode="N" d="M137 0v1612l672 -846v842l125 -125v-1077l-670 845v-1124zM281 127v1073l671 -846v1129l125 125v-1614l-669 846v-840z" />
<glyph unicode="O" d="M135 469v670q0 194 137 331q138 138 332 138q95 0 180 -36.5t150 -101.5q139 -139 139 -331v-670q0 -193 -139 -332q-64 -64 -149.5 -100.5t-180.5 -36.5q-195 0 -332 137t-137 332zM260 469q0 -141 101 -241.5t243 -100.5q141 0 241.5 100.5t100.5 241.5v670 q0 141 -100.5 241.5t-241.5 100.5q-142 0 -243 -100.5t-101 -241.5v-670zM279 469v670q0 134 95 229.5t230 95.5q133 0 228.5 -95.5t95.5 -229.5v-670q0 -135 -95 -229.5t-229 -96.5q-135 2 -230 96.5t-95 229.5zM403 469q0 -80 58 -141q58 -58 143 -58q83 0 141 58 q58 61 58 141v670q0 80 -58 141q-60 57 -141 57q-83 0 -143 -57q-58 -61 -58 -141v-670z" />
<glyph unicode="P" d="M158 0v1606h469q193 0 331 -138t138 -331q0 -191 -138 -332q-137 -137 -329 -137h-2h-201v-668l-125 125v670h326q142 0 243 100.5t101 241.5q0 143 -100.5 243.5t-243.5 100.5h-344v-1356zM301 811v217v434h326q135 0 230 -95t95 -230t-95 -230.5t-230 -95.5h-201h-125z M426 936h203q83 3 139 59q59 59 59 142q0 85 -59 141q-59 59 -141 59h-201v-401z" />
<glyph unicode="Q" horiz-adv-x="1292" d="M129 469v668q0 194 137 331q64 65 150 101.5t182 36.5q194 0 332 -138q137 -137 137 -331v-668q0 -115 -53 -215l256 -254h-178l-240 240q46 46 68 110q22 58 22 119v668q0 143 -101 243.5t-243 100.5t-243 -100.5t-101 -243.5v-668q0 -143 101 -243.5t243 -100.5 q68 0 137 29q63 29 105 71l239 -237v-178l-252 251q-106 -61 -229 -61q-95 0 -181.5 36.5t-150.5 100.5t-100.5 150.5t-36.5 181.5zM272 469v668q0 135 95.5 230t230.5 95t230.5 -95t95.5 -230v-668q0 -52 -19 -104q-20 -62 -65 -113q-2 -2 -6.5 -6t-6.5 -6 q-50 -50 -106 -72q-58 -25 -123 -25q-135 0 -230.5 95.5t-95.5 230.5zM397 469q0 -81 60 -141q57 -60 141 -60q81 0 141 60t60 141v668q0 83 -60 143q-60 57 -141 57q-84 0 -141 -57q-60 -60 -60 -143v-668z" />
<glyph unicode="R" d="M145 0v1606h469q195 0 330 -138q139 -136 139 -331q0 -193 -139 -332l-2 -2l2 -2q139 -139 139 -332v-469l-127 125v344q0 76 -30.5 143t-85.5 115q-69 59 -148 76q84 18 148 76q55 48 85.5 115t30.5 143q0 142 -100.5 243t-241.5 101h-344v-1356zM289 125v670h325 q118 -3 209 -78q53 -45 84 -110.5t31 -137.5v-344l-125 -125v469q0 81 -57 141q-61 58 -142 58h-200v-668zM289 811v217v434h325q134 0 229 -95t95 -230q0 -74 -30.5 -138.5t-84.5 -109.5q-91 -78 -209 -78h-200h-125zM414 938h200q82 0 142 57q57 60 57 142q0 84 -57 141 q-59 59 -142 59h-200v-399zM614 795z" />
<glyph unicode="S" d="M131 469v125l125 -125q0 -141 101 -242.5t243 -101.5q144 0 242 92q100 89 100 234q0 131 -113 235q-92 86 -227 125q-63 19 -120.5 51t-104.5 75t-75 100t-28 118q0 132 93 219.5t233 87.5q134 0 229 -95t95 -228v-2l-125 -125v127q0 82 -58 140t-141 58 q-88 0 -144.5 -51.5t-56.5 -130.5q0 -53 41 -101t92 -77t105 -45q163 -49 278 -154q154 -142 154 -327q0 -94 -36.5 -178.5t-104.5 -147.5q-138 -125 -328 -125q-128 0 -236 63t-170.5 171t-62.5 235zM131 1155q0 195 139 328q135 123 330 123q127 0 235 -62.5t171 -170 t63 -234.5v-127l-127 127q0 141 -100.5 241.5t-241.5 100.5q-145 0 -244 -90q-100 -92 -100 -236q0 -86 50.5 -161.5t125.5 -124t164 -74.5q63 -19 120.5 -51t104.5 -75t75 -100t28 -118q0 -131 -93 -219.5t-231 -88.5q-135 0 -230.5 95.5t-95.5 230.5l125 125v-125 q0 -83 59 -142t142 -59q86 0 142.5 52.5t56.5 130.5q0 74 -71.5 135t-166.5 88q-162 48 -276 153q-154 142 -154 328z" />
<glyph unicode="T" d="M152 1337l124 125h334v-1337l-125 -125v1337h-333zM152 1606h938l-127 -125h-687zM629 125v1337h334l127 -125h-336v-1337z" />
<glyph unicode="U" d="M143 469v1149l127 -125v-1024q0 -141 100.5 -241.5t241.5 -100.5q142 0 243 100.5t101 241.5v1024l125 125v-1149q0 -195 -137 -332t-332 -137q-191 0 -331 137q-138 141 -138 332zM287 469v1024l127 125v-1149q0 -81 57 -141q58 -58 141 -58q87 0 142 58q59 59 59 141 v1149l125 -125v-1024q0 -135 -95.5 -229.5t-230.5 -96.5q-135 2 -230 96.5t-95 229.5z" />
<glyph unicode="V" horiz-adv-x="1501" d="M90 1604l164 -70l483 -1198l486 1198l163 70l-649 -1604zM270 1542l70 162l397 -985l400 985l69 -162l-469 -1159z" />
<glyph unicode="W" horiz-adv-x="2004" d="M88 1604l164 -70l483 -1198l260 643l260 -643l484 1198l164 70l-648 -1604l-260 643l-260 -643zM268 1540l70 164l397 -985l115 285l-201 499l162 -69l174 -430l-250 -621zM829 1440l68 164l98 -242l99 242l67 -164l-166 -414zM1006 1004l174 430l161 69l-200 -499 l114 -285l398 985l69 -164l-467 -1157z" />
<glyph unicode="X" d="M143 0v469q0 194 138 332l4 4q-1 0 -2 1t-2 1q-138 141 -138 332v469l125 -127v-342q0 -120 76 -213.5t191 -120.5q-115 -27 -191 -120.5t-76 -213.5v-6v-338zM287 127v342v2q0 133 93.5 227.5t227.5 96.5h8q134 -2 228 -96.5t94 -227.5v-2v-342l-125 -127v469 q0 85 -59 141q-60 60 -142 60q-84 0 -141 -60q-59 -56 -59 -141v-469zM287 1139v342l125 127v-469q0 -83 59 -142t141 -59q83 0 142 59t59 142v469l125 -127v-342q0 -86 -48.5 -162t-122.5 -119.5t-151 -44.5h-8q-77 1 -151 44.5t-122 119.5t-48 162zM690 805 q115 26 190.5 120t75.5 214v342l125 127v-469q0 -192 -137 -332q-1 0 -2 -1t-2 -1l4 -4q137 -137 137 -332v-469l-125 127v338v6q0 120 -75.5 214t-190.5 120z" />
<glyph unicode="Y" d="M145 1139v467l125 -125v-342q0 -139 98 -239t236 -105v-670l-125 -125v688q-115 35 -196 119q-138 135 -138 332zM289 1139v342l125 125v-467q0 -86 59 -142q56 -59 141 -59q83 0 142 59q57 57 57 142v467l127 -125v-342q-2 -135 -97 -230.5t-229 -95.5q-135 0 -230 95.5 t-95 230.5zM623 125v670q139 4 236 104t97 240v342l127 125v-467q0 -196 -139 -332q-81 -84 -196 -119v-688z" />
<glyph unicode="Z" horiz-adv-x="1185" d="M129 0l541 1337h-541l127 125h600l-541 -1337h627l125 -125h-938zM129 1606h938l-539 -1338h539l-125 -125h-600l541 1338h-629z" />
<glyph unicode="[" d="M287 -395v2396h932l-125 -125h-682v-2144h682l125 -127h-932zM430 -250v2108h664l125 -125h-664v-1858h664l-125 -125h-664z" />
<glyph unicode="\" horiz-adv-x="2058" d="M27 1604h178l1618 -1618v-176zM217 1616v178l1794 -1794h-176z" />
<glyph unicode="]" d="M0 -125h664v1858h-664l125 125h663v-2108h-663zM0 -395l125 127h682v2144h-682l-125 125h932v-2396h-932z" />
<glyph unicode="^" d="M158 1909l465 465l464 -465h-178l-286 286l-287 -286h-178zM348 1718v178l275 275l274 -275v-178l-274 275z" />
<glyph unicode="_" d="M-137 -154h1513l-125 -125h-1263z" />
<glyph unicode="`" d="M254 2198h178l486 -486l-267 88zM444 2210v178l398 -397l88 -267z" />
<glyph unicode="a" horiz-adv-x="1607" d="M141 4l158 387h-158l127 125h215l-178 -442zM141 659h267l380 949l383 -949h267l-127 -124h-224l-299 737l-296 -737h-224zM322 68l182 448h571l182 -448l-69 -164l-197 487h-403l-197 -487zM510 535l278 690l281 -690h-559zM696 659h187l-95 230zM1096 516h217l125 -125 h-158l158 -387l-164 70z" />
<glyph unicode="b" d="M141 0v1606h469q194 0 332 -138q64 -64 100.5 -150t36.5 -181q0 -192 -137 -332q-1 0 -2 -1t-2 -1l4 -4q137 -137 137 -332q0 -95 -36.5 -180.5t-100.5 -149.5q-137 -137 -332 -137h-469zM266 125h344q142 0 243 100.5t101 243.5q0 120 -75.5 214t-190.5 120 q115 26 190.5 120t75.5 214q0 143 -101 243.5t-243 100.5h-344v-1356zM285 143v652h329q134 -3 228 -98t94 -228q0 -135 -95.5 -230.5t-230.5 -95.5h-325zM285 811v651h325q135 0 230.5 -95t95.5 -230q0 -86 -48.5 -162t-122.5 -119.5t-151 -44.5h-329zM410 268h200 q82 0 142 60q59 56 59 139q0 84 -59 143q-58 58 -140 58h-202v-400zM410 938h200q85 0 142 57q59 59 59 142q0 85 -59 141q-59 59 -142 59h-200v-399z" />
<glyph unicode="c" d="M150 469v670q0 191 137 331q141 138 331 138q194 0 332 -138q137 -137 137 -331v-127l-124 127q0 141 -101.5 241.5t-243.5 100.5q-141 0 -241.5 -100.5t-100.5 -241.5v-670q0 -141 100.5 -241.5t241.5 -100.5q142 0 243.5 100.5t101.5 241.5l124 127v-127 q0 -195 -137 -332t-332 -137q-191 0 -331 137q-137 140 -137 332zM293 469v670q0 134 95 229.5t230 95.5t230.5 -95.5t95.5 -229.5l-125 -125v125q0 82 -59 141q-57 57 -142 57q-81 0 -141 -57q-59 -62 -59 -141v-670q0 -79 59 -141q58 -58 141 -58q87 0 142 58 q59 59 59 141v127l125 -127q0 -135 -95.5 -229.5t-230.5 -96.5q-135 2 -230 96.5t-95 229.5z" />
<glyph unicode="d" d="M152 0v1606h469q193 0 331 -138q65 -65 101.5 -150.5t36.5 -180.5v-668q0 -95 -37 -181.5t-101 -150.5q-140 -137 -331 -137h-469zM276 125h345q143 0 243.5 100.5t100.5 243.5v668q0 143 -100.5 243.5t-243.5 100.5h-345v-1356zM295 143v1319h326q135 0 230 -95t95 -230 v-668q0 -135 -95 -230.5t-230 -95.5h-326zM420 268h201q81 0 141 60q56 53 59 141v668q-3 88 -59 141q-59 59 -141 59h-201v-1069z" />
<glyph unicode="e" d="M152 0v1608h933l-127 -127h-679v-1354h679l127 -127h-933zM297 143v672h537l124 -125h-536v-420h663l-127 -127h-661zM297 834v630h661l127 -127h-663v-379h536l-124 -124h-537z" />
<glyph unicode="f" d="M147 0v1606h932l-125 -125h-682v-1356zM291 125v688h538l125 -125h-538v-688zM291 831v631h663l125 -125h-663v-381h538l-125 -125h-538z" />
<glyph unicode="g" d="M139 467v670q0 194 137 331q65 65 150 101.5t180 36.5q194 0 332 -138q137 -137 137 -331v-125l-125 125q0 143 -101 243.5t-243 100.5q-141 0 -241.5 -101t-100.5 -243v-670q0 -141 100.5 -241.5t241.5 -100.5q142 0 243 100.5t101 241.5v240h-248l-124 124h497v-364 q0 -196 -137 -330q-134 -137 -332 -137q-196 0 -330 137q-137 134 -137 330zM283 467v670q0 135 94.5 230t228.5 95q135 0 230.5 -95t95.5 -230l-125 -125v125q0 81 -57 141q-59 59 -144 59q-82 0 -141 -59q-57 -60 -57 -141v-670q0 -82 57 -139q60 -60 141 -60q84 0 144 60 q57 57 57 139v96h-229l124 125h230v-221q0 -134 -95.5 -229t-230.5 -95q-133 0 -228 95t-95 229z" />
<glyph unicode="h" d="M152 0v1606l124 -125v-1356zM295 125v690h645v-690l-125 -125v688h-395v-688zM295 831v650l125 125v-650h395v650l125 -125v-650h-645zM958 125v1356l125 125v-1606z" />
<glyph unicode="i" horiz-adv-x="980" d="M141 0l125 125h436l125 -125h-686zM141 268h209v1069h-209l125 127h209v-2v-1319h-209zM141 1606h686l-125 -125h-436zM494 143v1321h208l125 -127h-209v-1069h209l-125 -125h-208z" />
<glyph unicode="j" d="M150 469v125l126 -125q0 -142 100.5 -243t241.5 -101q143 0 244 101t101 243v1012l124 125v-1137q0 -198 -137 -332q-134 -137 -332 -137q-194 0 -331 137t-137 332zM293 469l127 125v-125q0 -84 57 -141q60 -60 141 -60q85 0 142 60q59 56 59 141v1137l125 -125v-1012 q0 -135 -95.5 -230.5t-230.5 -95.5t-230 95.5t-95 230.5z" />
<glyph unicode="k" d="M150 0v1608l124 -127v-1356zM293 125v651l598 -598v-178l-473 473v-473zM293 801l610 610h178l-610 -610l610 -611h-178zM293 827v654l125 127v-480l473 474v-177z" />
<glyph unicode="l" d="M156 0v1612l125 -125v-1362h682l124 -125h-931zM299 143v1344l125 125v-1344h663l-124 -125h-664z" />
<glyph unicode="m" horiz-adv-x="1585" d="M100 0v1606l682 -963l684 963v-1606l-127 125v1087l-557 -786l-557 786v-1087zM244 125v1030l538 -760l541 760v-1030l-127 -125v762l-414 -584l-413 584v-762z" />
<glyph unicode="n" d="M137 0v1612l672 -846v842l125 -125v-1077l-670 845v-1124zM281 127v1073l671 -846v1129l125 125v-1614l-669 846v-840z" />
<glyph unicode="o" d="M135 469v670q0 194 137 331q138 138 332 138q95 0 180 -36.5t150 -101.5q139 -139 139 -331v-670q0 -193 -139 -332q-64 -64 -149.5 -100.5t-180.5 -36.5q-195 0 -332 137t-137 332zM260 469q0 -141 101 -241.5t243 -100.5q141 0 241.5 100.5t100.5 241.5v670 q0 141 -100.5 241.5t-241.5 100.5q-142 0 -243 -100.5t-101 -241.5v-670zM279 469v670q0 134 95 229.5t230 95.5q133 0 228.5 -95.5t95.5 -229.5v-670q0 -135 -95 -229.5t-229 -96.5q-135 2 -230 96.5t-95 229.5zM403 469q0 -80 58 -141q58 -58 143 -58q83 0 141 58 q58 61 58 141v670q0 80 -58 141q-60 57 -141 57q-83 0 -143 -57q-58 -61 -58 -141v-670z" />
<glyph unicode="p" d="M158 0v1606h469q193 0 331 -138t138 -331q0 -191 -138 -332q-137 -137 -329 -137h-2h-201v-668l-125 125v670h326q142 0 243 100.5t101 241.5q0 143 -100.5 243.5t-243.5 100.5h-344v-1356zM301 811v217v434h326q135 0 230 -95t95 -230t-95 -230.5t-230 -95.5h-201h-125z M426 936h203q83 3 139 59q59 59 59 142q0 85 -59 141q-59 59 -141 59h-201v-401z" />
<glyph unicode="q" horiz-adv-x="1302" d="M129 469v668q0 194 137 331q64 65 150 101.5t182 36.5q194 0 332 -138q137 -137 137 -331v-668q0 -115 -53 -215l256 -254h-178l-240 240q46 46 68 110q22 58 22 119v668q0 143 -101 243.5t-243 100.5t-243 -100.5t-101 -243.5v-668q0 -143 101 -243.5t243 -100.5 q68 0 137 29q63 29 105 71l239 -237v-178l-252 251q-106 -61 -229 -61q-95 0 -181.5 36.5t-150.5 100.5t-100.5 150.5t-36.5 181.5zM272 469v668q0 135 95.5 230t230.5 95t230.5 -95t95.5 -230v-668q0 -52 -19 -104q-20 -62 -65 -113q-2 -2 -6.5 -6t-6.5 -6 q-50 -50 -106 -72q-58 -25 -123 -25q-135 0 -230.5 95.5t-95.5 230.5zM397 469q0 -81 60 -141q57 -60 141 -60q81 0 141 60t60 141v668q0 83 -60 143q-60 57 -141 57q-84 0 -141 -57q-60 -60 -60 -143v-668z" />
<glyph unicode="r" d="M145 0v1606h469q195 0 330 -138q139 -136 139 -331q0 -193 -139 -332l-2 -2l2 -2q139 -139 139 -332v-469l-127 125v344q0 76 -30.5 143t-85.5 115q-69 59 -148 76q84 18 148 76q55 48 85.5 115t30.5 143q0 142 -100.5 243t-241.5 101h-344v-1356zM289 125v670h325 q118 -3 209 -78q53 -45 84 -110.5t31 -137.5v-344l-125 -125v469q0 81 -57 141q-61 58 -142 58h-200v-668zM289 811v217v434h325q134 0 229 -95t95 -230q0 -74 -30.5 -138.5t-84.5 -109.5q-91 -78 -209 -78h-200h-125zM414 938h200q82 0 142 57q57 60 57 142q0 84 -57 141 q-59 59 -142 59h-200v-399zM614 795z" />
<glyph unicode="s" d="M131 469v125l125 -125q0 -141 101 -242.5t243 -101.5q144 0 242 92q100 89 100 234q0 131 -113 235q-92 86 -227 125q-63 19 -120.5 51t-104.5 75t-75 100t-28 118q0 132 93 219.5t233 87.5q134 0 229 -95t95 -228v-2l-125 -125v127q0 82 -58 140t-141 58 q-88 0 -144.5 -51.5t-56.5 -130.5q0 -53 41 -101t92 -77t105 -45q163 -49 278 -154q154 -142 154 -327q0 -94 -36.5 -178.5t-104.5 -147.5q-138 -125 -328 -125q-128 0 -236 63t-170.5 171t-62.5 235zM131 1155q0 195 139 328q135 123 330 123q127 0 235 -62.5t171 -170 t63 -234.5v-127l-127 127q0 141 -100.5 241.5t-241.5 100.5q-145 0 -244 -90q-100 -92 -100 -236q0 -86 50.5 -161.5t125.5 -124t164 -74.5q63 -19 120.5 -51t104.5 -75t75 -100t28 -118q0 -131 -93 -219.5t-231 -88.5q-135 0 -230.5 95.5t-95.5 230.5l125 125v-125 q0 -83 59 -142t142 -59q86 0 142.5 52.5t56.5 130.5q0 74 -71.5 135t-166.5 88q-162 48 -276 153q-154 142 -154 328z" />
<glyph unicode="t" d="M152 1337l124 125h334v-1337l-125 -125v1337h-333zM152 1606h938l-127 -125h-687zM629 125v1337h334l127 -125h-336v-1337z" />
<glyph unicode="u" d="M143 469v1149l127 -125v-1024q0 -141 100.5 -241.5t241.5 -100.5q142 0 243 100.5t101 241.5v1024l125 125v-1149q0 -195 -137 -332t-332 -137q-191 0 -331 137q-138 141 -138 332zM287 469v1024l127 125v-1149q0 -81 57 -141q58 -58 141 -58q87 0 142 58q59 59 59 141 v1149l125 -125v-1024q0 -135 -95.5 -229.5t-230.5 -96.5q-135 2 -230 96.5t-95 229.5z" />
<glyph unicode="v" horiz-adv-x="1480" d="M90 1604l164 -70l483 -1198l486 1198l163 70l-649 -1604zM270 1542l70 162l397 -985l400 985l69 -162l-469 -1159z" />
<glyph unicode="w" horiz-adv-x="1990" d="M88 1604l164 -70l483 -1198l260 643l260 -643l484 1198l164 70l-648 -1604l-260 643l-260 -643zM268 1540l70 164l397 -985l115 285l-201 499l162 -69l174 -430l-250 -621zM829 1440l68 164l98 -242l99 242l67 -164l-166 -414zM1006 1004l174 430l161 69l-200 -499 l114 -285l398 985l69 -164l-467 -1157z" />
<glyph unicode="x" d="M143 0v469q0 194 138 332l4 4q-1 0 -2 1t-2 1q-138 141 -138 332v469l125 -127v-342q0 -120 76 -213.5t191 -120.5q-115 -27 -191 -120.5t-76 -213.5v-6v-338zM287 127v342v2q0 133 93.5 227.5t227.5 96.5h8q134 -2 228 -96.5t94 -227.5v-2v-342l-125 -127v469 q0 85 -59 141q-60 60 -142 60q-84 0 -141 -60q-59 -56 -59 -141v-469zM287 1139v342l125 127v-469q0 -83 59 -142t141 -59q83 0 142 59t59 142v469l125 -127v-342q0 -86 -48.5 -162t-122.5 -119.5t-151 -44.5h-8q-77 1 -151 44.5t-122 119.5t-48 162zM690 805 q115 26 190.5 120t75.5 214v342l125 127v-469q0 -192 -137 -332q-1 0 -2 -1t-2 -1l4 -4q137 -137 137 -332v-469l-125 127v338v6q0 120 -75.5 214t-190.5 120z" />
<glyph unicode="y" d="M145 1139v467l125 -125v-342q0 -139 98 -239t236 -105v-670l-125 -125v688q-115 35 -196 119q-138 135 -138 332zM289 1139v342l125 125v-467q0 -86 59 -142q56 -59 141 -59q83 0 142 59q57 57 57 142v467l127 -125v-342q-2 -135 -97 -230.5t-229 -95.5q-135 0 -230 95.5 t-95 230.5zM623 125v670q139 4 236 104t97 240v342l127 125v-467q0 -196 -139 -332q-81 -84 -196 -119v-688z" />
<glyph unicode="z" d="M129 0l541 1337h-541l127 125h600l-541 -1337h627l125 -125h-938zM129 1606h938l-539 -1338h539l-125 -125h-600l541 1338h-629z" />
<glyph unicode="{" d="M248 678l127 125q117 0 209 -76q113 -98 116 -250v-395q0 -141 100.5 -241.5t241.5 -100.5l125 -125h-125q-194 0 -331 137q-65 65 -101.5 150t-36.5 180v395q0 81 -57 141q-60 60 -141 60h-127zM248 946h127q81 0 141 60q57 57 57 141v393q0 95 37 181.5t101 150.5 q140 137 331 137h125l-125 -125q-141 0 -241.5 -101t-100.5 -243v-393q0 -74 -31 -139.5t-85 -110.5q-92 -76 -209 -76zM453 811q83 21 147 76q55 48 86 115.5t31 144.5v393q0 135 95.5 230.5t229.5 95.5l125 -125h-125q-81 0 -141 -60q-57 -60 -57 -141v-393 q0 -195 -137 -332l-5 -4l5 -2q137 -140 137 -332v-395q0 -81 57 -141q61 -58 141 -58h125l-125 -125q-134 0 -229.5 95.5t-95.5 228.5v2v393q0 75 -31 142.5t-86 115.5q-64 58 -147 76z" />
<glyph unicode="|" d="M477 -242v2104l125 -125v-1852zM621 -115v1852l124 125v-2104z" />
<glyph unicode="}" d="M131 -117h125q81 0 141 60q58 61 58 141v393q0 195 137 332l4 4l-4 2q-137 140 -137 332v395q0 80 -58 141q-61 58 -141 58h-125l125 125q134 0 230 -95.5t96 -228.5v-2v-393q0 -76 30.5 -143t85.5 -115q64 -58 148 -76q-84 -21 -148 -76q-55 -48 -85.5 -115.5 t-30.5 -144.5v-393q0 -135 -96 -230.5t-230 -95.5zM131 -385l125 125q141 0 241.5 101t100.5 243v393q0 73 31.5 139t85.5 111q92 76 209 76l127 -125h-127q-82 0 -142 -60q-57 -57 -57 -141v-393q0 -95 -36.5 -181.5t-100.5 -150.5q-140 -137 -332 -137h-125zM131 2009h125 q195 0 332 -137q64 -64 100.5 -149.5t36.5 -180.5v-395q0 -81 57 -141q60 -60 142 -60h127l-127 -125q-117 0 -209 76q-114 99 -117 250v395q0 141 -100.5 241.5t-241.5 100.5z" />
<glyph unicode="~" d="M125 608l88 90q98 97 236.5 97t236.5 -97q19 -20 46 -20.5t46 18.5l90 90v-178q-57 -56 -135.5 -56t-134.5 56q-62 62 -149 62t-148 -62h-176zM313 420v176q57 57 136 57t135 -57q62 -62 149 -62t148 62h176l-88 -88q-98 -98 -236.5 -98t-236.5 98q-19 19 -46.5 19 t-46.5 -19z" />
<glyph unicode="&#xa0;" />
<glyph unicode="&#xa1;" d="M330 -59l125 125v1124l-125 125v-1374zM330 1475l135 135l133 -135l-133 -134zM473 66l125 -125v1374l-125 -125v-1124z" />
<glyph unicode="&#xa2;" horiz-adv-x="1476" d="M123 799q0 222 133.5 395t341.5 231v363l127 -127v-340q-202 -19 -339.5 -169t-137.5 -353q0 -205 137.5 -354.5t339.5 -168.5v-339l-127 -127v362q-208 58 -341.5 231.5t-133.5 395.5zM266 799q0 197 132.5 341t326.5 163v-1008q-194 19 -326.5 163t-132.5 341zM391 799 q0 -109 56.5 -200.5t150.5 -139.5v678q-93 -46 -150 -137.5t-57 -200.5zM741 -63v337h31q107 0 203.5 40.5t169.5 113.5h176l-88 -90q-152 -152 -365 -182v-346zM741 293v1012q6 0 16 1t15 1q104 0 197 -39.5t164 -110.5v-178l-91 90q-75 75 -174 98v-739q101 27 174 100 l91 90l-3 -178q-69 -70 -161.5 -109.5t-196.5 -39.5q-19 0 -31 2zM741 1323v338l127 127v-346q213 -30 365 -185l88 -88h-176q-73 73 -169.5 113.5t-203.5 40.5h-31z" />
<glyph unicode="&#xa3;" d="M111 0l125 125h757l125 -125h-1007zM111 268h114q44 10 62 35q22 26 22 107q0 50 -14 139h-184l125 127h161q37 -174 37 -266q0 -113 -44.5 -181t-153.5 -86zM111 819h122q-51 206 -51 318q0 197 137 331q135 138 332 138q194 0 332 -138q137 -137 137 -331v-125 l-127 125q0 142 -100.5 243t-241.5 101q-143 0 -243.5 -100.5t-100.5 -243.5h19q0 135 95 230t230 95q134 0 230 -95t96 -230l-127 -125v125q0 83 -57 143q-60 57 -142 57q-84 0 -141 -57q-59 -59 -59 -143q-2 -76 59 -316q0 -2 2 -2h199l-125 -127h-174q-9 41 -28 120.5 t-29.5 125t-19.5 102.5t-9 97h-19q0 -41 9 -99t19 -102.5t29.5 -124t28.5 -119.5h-157zM305 143q148 57 148 267q0 92 -37 266h170l125 -127h-144q11 -82 11 -139q0 -75 -17 -142h557l-125 -125h-688z" />
<glyph unicode="&#xa4;" horiz-adv-x="1607" d="M145 344l230 229q-58 103 -58 224q0 118 58 221l-230 229h179l215 -215q-95 -98 -95 -235q0 -140 95 -238l-215 -215h-179zM336 154v178l215 215q97 -94 235 -94q142 0 236 94l217 -215v-178l-229 229q-104 -55 -224 -55q-116 0 -223 55zM336 1260v178l227 -230 q103 56 223 56q124 0 224 -56l229 230l-2 -178h2l-215 -216q-98 95 -238 95q-137 0 -235 -95l-90 89zM461 797q0 134 95 228.5t230 94.5t230.5 -94.5t95.5 -228.5q0 -135 -95.5 -230.5t-230.5 -95.5t-230 95.5t-95 230.5zM588 797q0 -84 57 -144q60 -57 141 -57q85 0 142 57 q59 59 59 144q0 82 -59 141q-57 57 -142 57q-81 0 -141 -57q-57 -60 -57 -141zM1036 559q94 101 94 238q0 134 -94 235l215 215h176l-227 -229q55 -104 55 -221q0 -120 -55 -224l227 -229h-176z" />
<glyph unicode="&#xa5;" d="M125 209l125 125h336v-209l-127 -125v209h-334zM125 477h334v131h-334l125 127h336v-383h-336zM125 879h334v18q-113 35 -197 119q-64 64 -100.5 149.5t-36.5 180.5v260l125 -125v-135q0 -139 98 -239t238 -103v-19v-233h-336zM268 1346v135l125 125v-260q0 -83 60 -140 q59 -59 141 -59t141 59q60 57 60 140v260l125 -125v-135q0 -134 -95.5 -229t-230.5 -95t-230.5 95t-95.5 229zM602 125v209h336l125 -125h-334v-209zM602 352v383h336l125 -127h-334v-131h334l-125 -125h-336zM602 752v252q140 3 238 103t98 239v135l125 125v-260 q0 -95 -36.5 -180.5t-100.5 -149.5q-84 -84 -197 -119v-18h334l-125 -127h-336z" />
<glyph unicode="&#xa6;" d="M477 -242v883l125 -125v-631zM477 963v882l125 -125v-630zM621 -115v631l124 125v-883zM621 1090v630l124 125v-882z" />
<glyph unicode="&#xa7;" horiz-adv-x="1406" d="M147 125v127l125 -127q0 -141 101.5 -241.5t242.5 -100.5q145 0 244 90q65 62 90 152q11 49 11 84q0 6 -5 51q55 22 97 61l12 12q88 91 88 222t-113 235q-92 86 -227 125q-63 19 -120.5 51t-104.5 75t-75 100t-28 118q0 132 93.5 220.5t232.5 88.5q134 0 230 -96t96 -229 l-127 -127v127q0 83 -58 140.5t-141 57.5q-88 0 -144.5 -51.5t-56.5 -130.5q0 -39 23.5 -77t60.5 -66t76.5 -48t77.5 -32q162 -47 278 -154q154 -142 154 -327q0 -94 -36.5 -178.5t-104.5 -147.5q-24 -21 -54 -41q-9 -184 -141 -307t-328 -123q-127 0 -235 62.5t-171 170 t-63 234.5zM147 813q0 93 37 178t105 148q17 17 53 41q6 182 141 307q134 125 328 125q193 0 331 -138t138 -331v-127l-127 127q0 141 -100.5 241.5t-241.5 100.5q-145 0 -244 -90q-69 -66 -90 -152q-10 -45 -10 -84q0 -15 4 -51q-53 -21 -96 -61q-9 -9 -15 -13 q-88 -94 -88 -221q0 -65 29 -125t78.5 -105t109 -78.5t125.5 -53.5q86 -25 158 -71t121 -118t49 -153q0 -132 -93 -220t-233 -88q-134 0 -229.5 95.5t-95.5 228.5l125 127v-127q0 -82 58.5 -140.5t141.5 -58.5q88 0 144.5 51.5t56.5 131.5q0 73 -71 133.5t-168 89.5 q-167 51 -275 153q-156 141 -156 328zM291 813q0 119 78 203q47 50 106 76q13 -55 55 -113q48 -62 121.5 -109t155.5 -71q86 -26 158.5 -72t122 -118t49.5 -154q0 -117 -78 -201q-44 -51 -107 -78q-15 61 -55 113q-24 31 -49 53q-90 84 -230 127q-85 25 -157 71t-121 118.5 t-49 154.5zM416 813q0 -53 41 -101.5t93 -77.5t105 -44q169 -54 277 -156q29 -23 59 -61q19 40 19 82q0 74 -71.5 135t-166.5 88q-167 53 -276 153q-31 27 -60 64q-20 -42 -20 -82z" />
<glyph unicode="&#xa8;" d="M219 1739h268v268h-268v-268zM745 1739h269v268h-269v-268z" />
<glyph unicode="&#xa9;" horiz-adv-x="1904" d="M125 805q0 165 61.5 313.5t178.5 263.5q114 114 262.5 173t314.5 59q165 0 313.5 -59t264.5 -173q116 -116 177.5 -264.5t61.5 -312.5t-61.5 -313t-177.5 -265q-115 -115 -264 -174t-314 -59q-167 0 -315 59t-262 174q-117 115 -178.5 264t-61.5 314zM250 805 q0 -188 92.5 -347t252 -252t347.5 -93q187 0 346.5 93t252.5 252.5t93 346.5t-93 346.5t-252.5 252.5t-346.5 93q-188 0 -347.5 -93t-252 -252t-92.5 -347zM268 805q0 137 53.5 261.5t143.5 215t215 144t262 53.5q182 0 337.5 -90.5t246 -246t90.5 -337.5q0 -137 -53.5 -262 t-144 -215t-215 -143.5t-261.5 -53.5t-262 53.5t-215 143.5t-143.5 215t-53.5 262zM393 805q0 -149 73.5 -276.5t200 -202t275.5 -74.5q148 0 274.5 74.5t200.5 202t74 276.5t-74 276t-200.5 201t-274.5 74q-149 0 -275.5 -74t-200 -201t-73.5 -276zM672 670h2h-2v270 q0 111 79 189.5t191 78.5q110 0 189 -79t79 -189v-123l-125 123q-1 60 -43 101.5t-100 41.5q-60 0 -101.5 -41.5t-41.5 -101.5v-270q0 -59 41.5 -101.5t101.5 -42.5q58 0 100.5 42.5t42.5 101.5l125 123v-123q0 -110 -79 -189.5t-189 -79.5q-112 0 -191 79t-79 190zM815 670 v270q0 51 37.5 88t89.5 37q51 0 88 -37t37 -88l-117 -117v117q0 8 -8 8q-10 0 -10 -8v-270q0 -8 10 -8q8 0 8 8v116l117 -116q0 -51 -36.5 -88t-88.5 -37t-89.5 37t-37.5 88z" />
<glyph unicode="&#xaa;" d="M219 739h791l-127 -125h-537zM221 471l125 125h537l127 -125h-789zM346 1135v268q0 112 78.5 190t189.5 78q113 0 191 -78l78 78v-125v-143v-268v-144v-125l-78 78q-78 -78 -191 -78q-111 0 -189.5 78.5t-78.5 190.5zM471 1135q0 -60 41.5 -102t101.5 -42t102 42t42 102 v270q0 59 -42 100t-102 41q-58 0 -99.5 -41t-43.5 -100v-270zM489 1135v268q0 53 36.5 89t88.5 36t88.5 -36t36.5 -89v-268q0 -53 -36.5 -89t-88.5 -36t-88.5 36t-36.5 89zM606 1135q0 -9 8 -9q11 0 11 9v268q0 10 -11 10q-8 0 -8 -10v-268z" />
<glyph unicode="&#xab;" horiz-adv-x="2535" d="M182 872l1301 752l-45 -172l-1004 -580l1004 -579l45 -172zM469 872l977 -565l172 47l-897 518l897 519l-172 45zM971 872l1300 752l-45 -172l-1003 -580l1003 -579l45 -172zM1257 872l977 -565l172 47l-897 518l897 519l-172 45z" />
<glyph unicode="&#xac;" horiz-adv-x="1849" d="M78 729h1343v-663l127 127v661h-1343zM78 997l127 -125h1360v-679l127 -127v931h-1614z" />
<glyph unicode="&#xad;" horiz-adv-x="1460" d="M139 670l125 125h938l125 -125h-1188zM139 938h1188l-125 -125h-938z" />
<glyph unicode="&#xae;" horiz-adv-x="1839" d="M92 803q0 164 62 313t178 266q114 114 263 173t314 59q166 0 315 -59t263 -173q117 -117 178 -265.5t61 -313.5q0 -164 -61.5 -313t-177.5 -265q-114 -114 -262.5 -172.5t-315.5 -58.5q-165 0 -314 58.5t-263 172.5q-116 117 -178 266.5t-62 311.5zM217 803 q0 -187 93 -346.5t252.5 -252.5t346.5 -93t347 93t253 252.5t93 346.5q0 113 -35 218.5t-99.5 190.5t-149.5 149t-191 99t-218 35q-188 0 -347 -92.5t-252 -252t-93 -347.5zM236 803q0 137 53.5 262.5t143.5 216t214.5 144t261.5 53.5t262 -53.5t215 -144t143.5 -216 t53.5 -262.5t-53.5 -261.5t-143.5 -215t-215 -144t-262 -53.5t-261.5 53.5t-214.5 144t-143.5 215t-53.5 261.5zM360 803q0 -148 74 -275t200.5 -201.5t274.5 -74.5q149 0 275.5 74.5t200 201.5t73.5 275q0 149 -73.5 276.5t-200 202t-275.5 74.5q-148 0 -274.5 -74.5 t-200.5 -202t-74 -276.5zM653 389v807l78 -78q81 78 191 78t189 -79t79 -189q0 -114 -80 -191l158 -157h-178l-209 211q21 -7 41 -7q60 0 101.5 42t41.5 102q0 59 -41.5 101t-101.5 42q-59 0 -101.5 -41.5t-42.5 -101.5v-412zM797 516v332l280 -281v-178l-155 158v-158z M797 928q0 51 36.5 88t88.5 37t88.5 -37t36.5 -88q0 -53 -36.5 -90t-88.5 -37t-88.5 37t-36.5 90z" />
<glyph unicode="&#xaf;" d="M-137 1968h1513l-125 -125h-1263z" />
<glyph unicode="&#xb0;" horiz-adv-x="1282" d="M295 1675q0 138 98 236t236 98t236 -98t98 -236q0 -139 -98 -237.5t-236 -98.5t-236 98.5t-98 237.5zM420 1675q0 -88 61.5 -149.5t147.5 -61.5t147.5 61.5t61.5 149.5q0 86 -61.5 147.5t-147.5 61.5t-147.5 -61.5t-61.5 -147.5zM438 1675q0 78 56 134.5t135 56.5 t134.5 -56.5t55.5 -134.5q0 -80 -55.5 -136t-134.5 -56t-135 56t-56 136zM563 1675q0 -28 19 -47.5t47 -19.5t46.5 19.5t18.5 47.5q0 27 -19 46.5t-46 19.5t-46.5 -19.5t-19.5 -46.5z" />
<glyph unicode="&#xb1;" horiz-adv-x="1423" d="M117 0l125 125h938l125 -125h-1188zM117 268h1188l-125 -125h-938zM117 803l125 125h458v-459l-125 -127v461h-458zM117 1071h458v461l125 -125v-461h-458zM719 469v459h461l125 -125h-459v-461zM719 946v461l127 125v-461h459l-125 -125h-461z" />
<glyph unicode="&#xb2;" horiz-adv-x="829" d="M145 1212v136q0 84 43 155q37 59 86 101q22 20 52 45.5t47.5 41.5t25.5 27q15 19 15 33h-125q0 53 36.5 89t88.5 36t88.5 -36t36.5 -89q0 -58 -33.5 -101.5t-97.5 -95.5q-36 -30 -51.5 -44t-40.5 -42.5t-35.5 -57.5t-10.5 -62v-11h287l125 -125h-537zM145 1751 q0 111 78.5 189.5t190.5 78.5t190 -78.5t78 -189.5q3 -85 -43 -158q-30 -52 -84 -102q-4 -2 -12 -10h139l-125 -125h-268q2 38 23 73t43.5 56t64.5 55q30 26 41 35.5t34.5 34.5t33.5 42.5t19 44t9 54.5q0 60 -41.5 101.5t-101.5 41.5t-102 -41.5t-42 -101.5h-125z" />
<glyph unicode="&#xb3;" horiz-adv-x="798" d="M125 1481h125q0 -60 42.5 -102t102.5 -42q59 0 101.5 42t42.5 102q0 45 -27 82.5t-68 52.5q41 15 68 51.5t27 81.5v2q0 58 -42.5 100.5t-101.5 42.5q-60 0 -102.5 -42.5t-42.5 -102.5h-125q0 113 78.5 191.5t191.5 78.5q111 0 190 -79t79 -191q0 -70 -37 -133 q37 -66 37 -135q0 -110 -79.5 -189.5t-189.5 -79.5q-112 0 -191 79t-79 190zM268 1481h127v125v2v-2q51 0 88 -36.5t37 -88.5t-37 -88.5t-88 -36.5q-53 0 -90 36.5t-37 88.5zM268 1749q0 53 37 90t90 37q51 0 88 -37.5t37 -89.5q0 -51 -37 -88t-88 -37v125h-127z" />
<glyph unicode="&#xb4;" d="M254 1724l485 486v178l-397 -397zM266 1712l266 88l398 398h-178z" />
<glyph unicode="&#xb6;" horiz-adv-x="1765" d="M137 1139q0 192 137 329q64 65 150 101.5t182 36.5h1034l-124 -125h-910q-142 0 -243 -100.5t-101 -241.5q0 -143 101 -243.5t243 -100.5h166v-920l-127 -125v920h-39q-96 0 -182 36t-150 101q-137 137 -137 332zM281 1139q0 134 95 228.5t230 94.5h166v-649h-166 q-135 0 -230 95.5t-95 230.5zM406 1139q0 -85 59 -144q57 -57 141 -57h39v399h-39q-84 0 -141 -57q-59 -59 -59 -141zM788 -125v1587h512v-1587l-124 -125v1587h-261v-1587zM1319 -125v1587h197l124 -125h-196v-1587z" />
<glyph unicode="&#xb7;" horiz-adv-x="1460" d="M477 631h268v268h-268v-268z" />
<glyph unicode="&#xb8;" horiz-adv-x="1685" d="M430 -453l170 54q45 -25 94 -25q58 0 108 29t77 82q38 72 15 152.5t-93 121.5l65 123h138l-48 -96q60 -76 69.5 -173t-36.5 -188q-43 -83 -123 -129.5t-172 -46.5q-82 0 -153 39zM555 -215l111 -57q23 -12 48.5 -5.5t37.5 29.5t4 48.5t-31 37.5l-119 64l99 182h141 l-70 -131l8 -4q69 -37 92 -111t-14 -143t-111 -92t-143 12z" />
<glyph unicode="&#xb9;" horiz-adv-x="577" d="M152 1227v520l124 127v-537zM295 1339v551l125 127v-805z" />
<glyph unicode="&#xba;" horiz-adv-x="1034" d="M117 489l125 125h536l127 -125h-788zM117 758h788l-127 -125h-536zM242 1153v268q0 112 78.5 190.5t189.5 78.5q112 0 190 -78t78 -191v-268q0 -113 -78 -191.5t-190 -78.5q-111 0 -189.5 79t-78.5 191zM367 1153q0 -60 42 -101.5t101 -41.5q60 0 101.5 41.5t41.5 101.5 v270q0 59 -41.5 100.5t-101.5 41.5q-58 0 -99.5 -41.5t-43.5 -100.5v-270zM385 1153v268q0 53 36.5 89t88.5 36t88.5 -36t36.5 -89v-268q0 -53 -36.5 -90t-88.5 -37t-88.5 37t-36.5 90zM502 1153q0 -10 8 -10q10 0 10 10v268q0 9 -10 9q-8 0 -8 -9v-268z" />
<glyph unicode="&#xbb;" horiz-adv-x="2514" d="M182 872l1301 752l-45 -172l-1004 -580l1004 -579l45 -172zM469 872l977 -565l172 47l-897 518l897 519l-172 45zM971 872l1300 752l-45 -172l-1003 -580l1003 -579l45 -172zM1257 872l977 -565l172 47l-897 518l897 519l-172 45z" />
<glyph unicode="&#xbc;" horiz-adv-x="1988" d="M0 0l1794 1794v-176l-1616 -1618h-178zM190 -12l1618 1618h177l-1795 -1796v178zM315 817v520l125 125v-534zM459 928v553l125 125v-803zM1137 412l393 393h125v-270h125l-125 -125h-125v219l-238 -238h219v-266l-125 -125v266h-102zM1335 410l176 176v-176h-176z M1530 125v266h125l127 -125h-127v-266z" />
<glyph unicode="&#xbd;" horiz-adv-x="1992" d="M0 0l1794 1794v-176l-1616 -1618h-178zM190 -12l1618 1618h177l-1795 -1796v178zM315 817v520l125 125v-534zM459 928v553l125 125v-803zM1249 0v135q0 82 43 156q30 48 86 100q19 17 51.5 44t49.5 43t24 28q15 17 15 33h-125q0 51 36.5 88t88.5 37t88 -37t36 -88h3 q0 -40 -21.5 -78.5t-45.5 -61t-67 -57.5q-45 -38 -67.5 -59t-46 -62.5t-23.5 -85.5v-10h287l127 -125h-539zM1249 539q0 110 79.5 189t189.5 79q112 0 190 -78.5t78 -189.5q3 -85 -43 -158q-30 -52 -84 -102q-2 -2 -6 -5.5t-6 -5.5h141l-127 -125h-268q3 53 36 94t95 91 q32 26 51 44t41.5 45t33.5 57.5t11 64.5q0 59 -41.5 101t-101.5 42t-102 -42t-42 -101h-125z" />
<glyph unicode="&#xbe;" horiz-adv-x="1984" d="M0 0l1794 1794v-176l-1616 -1618h-178zM168 1069h127q0 -60 41.5 -101.5t101.5 -41.5q59 0 101.5 41.5t42.5 101.5q0 45 -27 82t-68 51q41 15 68 52.5t27 82.5q0 60 -42.5 102t-101.5 42q-60 0 -101.5 -42t-41.5 -102h-127q0 112 78.5 190.5t191.5 78.5q111 0 190 -78.5 t79 -190.5q0 -69 -37 -135q37 -63 37 -133q0 -112 -79 -190t-190 -78q-113 0 -191.5 78t-78.5 190zM190 -12l1618 1618h177l-1795 -1796v178zM311 1069h127v125q51 0 88 -36.5t37 -88.5t-37 -88.5t-88 -36.5q-53 0 -90 36.5t-37 88.5zM311 1337q0 52 37 88.5t90 36.5 q51 0 88 -36.5t37 -88.5t-37 -88.5t-88 -36.5v125h-127zM1137 412l393 393h125v-270h125l-125 -125h-125v219l-238 -238h219v-266l-125 -125v266h-102zM1335 410l176 176v-176h-176zM1530 125v266h125l127 -125h-127v-266z" />
<glyph unicode="&#xbf;" d="M152 420q0 62 13 117.5t30.5 93.5t48.5 79.5t51.5 63t56.5 55.5q42 41 61 62t43.5 58.5t34 80t9.5 98.5v78v125l125 -125v-78q0 -60 -12 -113t-26 -87t-44 -74t-47.5 -58t-55.5 -55q-37 -37 -51 -51.5t-42 -50t-39 -62t-21.5 -68.5t-10.5 -89q-2 -103 54 -191t153 -129 q90 -35 177.5 -26t163 64t112.5 141q56 132 2 262v2l72 162l47 -117q70 -181 -6 -359q-38 -88 -105.5 -152t-152.5 -97q-82 -34 -176.5 -34t-182.5 38t-152.5 105.5t-97.5 152.5q-35 87 -32 178zM295 420q0 55 11.5 100t38 83.5t48 62t60.5 61.5q38 37 57 57.5t49 60.5 t45 76t27 90.5t12 116.5v78l125 125v-125v-78q0 -77 -15.5 -146t-35.5 -114.5t-56 -95t-58 -73t-62 -62.5q-69 -66 -95 -108t-26 -109q0 -43 14 -78q28 -75 107 -111q71 -32 153 -2q79 30 109 107q34 75 2 153l-45 117l162 -71q51 -127 -4 -248q-52 -124 -177.5 -174 t-248.5 4q-92 39 -145.5 122.5t-51.5 180.5zM500 1495l135 -135l133 135l-133 135z" />
<glyph unicode="&#xc0;" horiz-adv-x="1607" d="M141 4l158 387h-158l127 125h215l-178 -442zM141 659h267l380 949l383 -949h267l-127 -124h-224l-299 737l-296 -737h-224zM322 68l182 448h571l182 -448l-69 -164l-197 487h-403l-197 -487zM451 2204h178l485 -486l-266 88zM510 535l278 690l281 -690h-559zM641 2216 v178l397 -397l88 -266zM696 659h187l-95 230zM1096 516h217l125 -125h-158l158 -387l-164 70z" />
<glyph unicode="&#xc1;" horiz-adv-x="1581" d="M141 4l158 387h-158l127 125h215l-178 -442zM141 659h267l380 949l383 -949h267l-127 -124h-224l-299 737l-296 -737h-224zM322 68l182 448h571l182 -448l-69 -164l-197 487h-403l-197 -487zM453 1730l485 486v178l-397 -397zM465 1718l266 88l398 398h-178zM510 535 l278 690l281 -690h-559zM696 659h187l-95 230zM1096 516h217l125 -125h-158l158 -387l-164 70z" />
<glyph unicode="&#xc2;" horiz-adv-x="1574" d="M141 4l158 387h-158l127 125h215l-178 -442zM141 659h267l380 949l383 -949h267l-127 -124h-224l-299 737l-296 -737h-224zM322 68l182 448h571l182 -448l-69 -164l-197 487h-403l-197 -487zM324 1909l464 465l465 -465h-178l-287 286l-286 -286h-178zM510 535l278 690 l281 -690h-559zM512 1718v178l276 275l275 -275v-178l-275 275zM696 659h187l-95 230zM1096 516h217l125 -125h-158l158 -387l-164 70z" />
<glyph unicode="&#xc3;" horiz-adv-x="1601" d="M141 4l158 387h-158l127 125h215l-178 -442zM141 659h267l380 949l383 -949h267l-127 -124h-224l-299 737l-296 -737h-224zM313 1919l88 90q98 97 236.5 97t236.5 -97q19 -20 46.5 -20.5t46.5 18.5l90 90v-178q-57 -55 -136 -55t-135 55q-62 61 -149 61t-148 -61h-176z M322 68l182 448h571l182 -448l-69 -164l-197 487h-403l-197 -487zM502 1731v176q57 57 136 57t134 -57q62 -61 149 -61t148 61h176l-88 -88q-98 -98 -236.5 -98t-236.5 98q-19 19 -46 19t-46 -19zM510 535l278 690l281 -690h-559zM696 659h187l-95 230zM1096 516h217 l125 -125h-158l158 -387l-164 70z" />
<glyph unicode="&#xc4;" horiz-adv-x="1570" d="M141 4l158 387h-158l127 125h215l-178 -442zM141 659h267l380 949l383 -949h267l-127 -124h-224l-299 737l-296 -737h-224zM322 68l182 448h571l182 -448l-69 -164l-197 487h-403l-197 -487zM391 1718h268v269h-268v-269zM510 535l278 690l281 -690h-559zM696 659h187 l-95 230zM918 1718h268v269h-268v-269zM1096 516h217l125 -125h-158l158 -387l-164 70z" />
<glyph unicode="&#xc5;" horiz-adv-x="1601" d="M141 4l158 387h-158l127 125h215l-178 -442zM141 659h267l380 949l383 -949h267l-127 -124h-224l-299 737l-296 -737h-224zM322 68l182 448h571l182 -448l-69 -164l-197 487h-403l-197 -487zM455 2040q0 138 97.5 236t235.5 98t236 -98t98 -236q0 -139 -98 -237.5 t-236 -98.5t-235.5 98.5t-97.5 237.5zM510 535l278 690l281 -690h-559zM580 2040q0 -88 61 -149.5t147 -61.5t147.5 61.5t61.5 149.5q0 86 -61.5 147.5t-147.5 61.5t-147 -61.5t-61 -147.5zM598 2040q0 78 55.5 134t134.5 56t135 -56t56 -134q0 -80 -56 -136.5t-135 -56.5 t-134.5 56.5t-55.5 136.5zM696 659h187l-95 230zM723 2040q0 -28 19 -48t46 -20q28 0 47 20t19 48q0 26 -19 45.5t-47 19.5q-27 0 -46 -19t-19 -46zM1096 516h217l125 -125h-158l158 -387l-164 70z" />
<glyph unicode="&#xc6;" horiz-adv-x="1560" d="M143 0v1137q0 192 138 333q65 65 150.5 101.5t180.5 36.5h789l-125 -127h-428h-236q-142 0 -243 -100.5t-101 -241.5v-1014zM287 125v672h450v-672h539l125 -125h-789v670h-200v-670zM287 813v326q0 133 95 228t230 97h125v-651h-450zM412 940h200v397q-84 0 -141 -57 q-59 -59 -59 -143v-197zM756 143v654h393l127 -127h-395v-402h520l-125 -125h-520zM756 813v651h520l125 -127h-520v-397h395l-127 -127h-393z" />
<glyph unicode="&#xc7;" d="M145 473v670q0 194 138 332q137 137 331 137q192 0 332 -137q137 -140 137 -332v-125l-127 125q0 142 -100.5 243t-241.5 101q-142 0 -243 -100.5t-101 -243.5v-670q0 -140 97.5 -239.5t236.5 -102.5l-84 -158l8 -4q69 -35 92 -110t-14 -144q-35 -69 -110 -92t-144 12 l-51 170l111 -57q23 -12 47.5 -5t36.5 30t4 48.5t-31 37.5l-117 63l66 125q-82 40 -135 96q-138 135 -138 330zM174 -432l170 53q46 -24 96 -24q56 0 106 29t77 81q39 72 16 153t-94 122l80 149q138 4 234.5 104t96.5 238l127 127v-127q0 -95 -36.5 -180.5t-100.5 -149.5 q-102 -102 -241 -129l-3 -6q59 -76 68 -173t-37 -187q-43 -83 -122.5 -129.5t-170.5 -46.5q-84 0 -155 39zM289 473q0 -134 95 -229.5t230 -96.5q134 2 230 97.5t96 228.5l-127 127v-127q0 -81 -57 -141q-61 -58 -142 -58q-83 0 -141 58q-59 59 -59 141v670q0 82 59 141 q56 59 141 59q83 0 142 -59q57 -60 57 -141v-125l127 125q0 135 -96 230t-230 95q-135 0 -230 -95t-95 -230v-670z" />
<glyph unicode="&#xc8;" d="M152 0v1608h933l-127 -127h-679v-1354h679l127 -127h-933zM254 2202h178l486 -486l-267 88zM297 143v672h537l124 -125h-536v-420h663l-127 -127h-661zM297 834v630h661l127 -127h-663v-379h536l-124 -124h-537zM444 2214v178l398 -397l88 -267z" />
<glyph unicode="&#xc9;" d="M152 0v1608h933l-127 -127h-679v-1354h679l127 -127h-933zM297 143v672h537l124 -125h-536v-420h663l-127 -127h-661zM297 834v630h661l127 -127h-663v-379h536l-124 -124h-537zM315 1730l485 486v178l-397 -397zM327 1718l266 88l398 398h-178z" />
<glyph unicode="&#xca;" d="M152 0v1608h933l-127 -127h-679v-1354h679l127 -127h-933zM158 1907l465 465l464 -465h-178l-286 286l-287 -286h-178zM297 143v672h537l124 -125h-536v-420h663l-127 -127h-661zM297 834v630h661l127 -127h-663v-379h536l-124 -124h-537zM346 1716v178l277 275l274 -275 v-178l-274 275z" />
<glyph unicode="&#xcb;" d="M152 0v1608h933l-127 -127h-679v-1354h679l127 -127h-933zM219 1719h268v268h-268v-268zM297 143v672h537l124 -125h-536v-420h663l-127 -127h-661zM297 834v630h661l127 -127h-663v-379h536l-124 -124h-537zM745 1719h269v268h-269v-268z" />
<glyph unicode="&#xcc;" horiz-adv-x="1007" d="M141 0l125 125h436l125 -125h-686zM141 268h209v1069h-209l125 127h209v-2v-1319h-209zM141 1606h686l-125 -125h-436zM147 2204h179l485 -486l-266 88zM338 2216v178l397 -397l88 -266zM494 143v1321h208l125 -127h-209v-1069h209l-125 -125h-208z" />
<glyph unicode="&#xcd;" horiz-adv-x="987" d="M141 0l125 125h436l125 -125h-686zM141 268h209v1069h-209l125 127h209v-2v-1319h-209zM141 1606h686l-125 -125h-436zM143 1729l486 485v178l-398 -397zM156 1716l266 88l397 398h-178zM494 143v1321h208l125 -127h-209v-1069h209l-125 -125h-208z" />
<glyph unicode="&#xce;" horiz-adv-x="987" d="M20 1905l465 465l465 -465h-178l-287 286l-286 -286h-179zM141 0l125 125h436l125 -125h-686zM141 268h209v1069h-209l125 127h209v-2v-1319h-209zM141 1606h686l-125 -125h-436zM209 1714v178l276 275l275 -275v-178l-275 275zM494 143v1321h208l125 -127h-209v-1069 h209l-125 -125h-208z" />
<glyph unicode="&#xcf;" horiz-adv-x="956" d="M86 1714h268v268h-268v-268zM141 0l125 125h436l125 -125h-686zM141 268h209v1069h-209l125 127h209v-2v-1319h-209zM141 1606h686l-125 -125h-436zM494 143v1321h208l125 -127h-209v-1069h209l-125 -125h-208zM612 1714h269v268h-269v-268z" />
<glyph unicode="&#xd0;" horiz-adv-x="1343" d="M41 670l125 125h262v-670h342q142 0 243 101.5t101 242.5v668q0 143 -101 243.5t-243 100.5h-342v-668h-262l-125 125h260v670h469q195 0 332 -140q137 -134 137 -331v-668q0 -195 -137 -332t-332 -137h-469v670h-260zM444 143v652h261l124 -125h-258v-402h199 q84 0 141 60q60 60 60 141v668q0 83 -60 143q-57 57 -141 57h-199v-399h258l-124 -125h-261v651h326q135 -2 230.5 -97t95.5 -230v-668q0 -135 -95.5 -230.5t-230.5 -95.5h-326z" />
<glyph unicode="&#xd1;" d="M129 1946l88 90q98 97 236.5 97t236.5 -97q19 -20 46 -20.5t46 18.5l90 90v-178q-57 -56 -135.5 -56t-134.5 56q-62 62 -149 62t-148 -62h-176zM137 0v1612l672 -846v842l125 -125v-1077l-670 845v-1124zM281 127v1073l671 -846v1129l125 125v-1614l-669 846v-840z M317 1758v176q57 57 136 57t135 -57q62 -62 149 -62t148 62h176l-88 -88q-98 -98 -236.5 -98t-236.5 98q-19 19 -46.5 19t-46.5 -19z" />
<glyph unicode="&#xd2;" d="M135 469v670q0 194 137 331q138 138 332 138q95 0 180 -36.5t150 -101.5q139 -139 139 -331v-670q0 -193 -139 -332q-64 -64 -149.5 -100.5t-180.5 -36.5q-195 0 -332 137t-137 332zM254 2202h178l486 -486l-267 88zM260 469q0 -141 101 -241.5t243 -100.5 q141 0 241.5 100.5t100.5 241.5v670q0 141 -100.5 241.5t-241.5 100.5q-142 0 -243 -100.5t-101 -241.5v-670zM279 469v670q0 134 95 229.5t230 95.5q133 0 228.5 -95.5t95.5 -229.5v-670q0 -135 -95 -229.5t-229 -96.5q-135 2 -230 96.5t-95 229.5zM403 469q0 -80 58 -141 q58 -58 143 -58q83 0 141 58q58 61 58 141v670q0 80 -58 141q-60 57 -141 57q-83 0 -143 -57q-58 -61 -58 -141v-670zM444 2214v178l398 -397l88 -267z" />
<glyph unicode="&#xd3;" d="M135 469v670q0 194 137 331q138 138 332 138q95 0 180 -36.5t150 -101.5q139 -139 139 -331v-670q0 -193 -139 -332q-64 -64 -149.5 -100.5t-180.5 -36.5q-195 0 -332 137t-137 332zM254 1730l485 486v178l-397 -397zM260 469q0 -141 101 -241.5t243 -100.5 q141 0 241.5 100.5t100.5 241.5v670q0 141 -100.5 241.5t-241.5 100.5q-142 0 -243 -100.5t-101 -241.5v-670zM266 1718l266 88l398 398h-178zM279 469v670q0 134 95 229.5t230 95.5q133 0 228.5 -95.5t95.5 -229.5v-670q0 -135 -95 -229.5t-229 -96.5q-135 2 -230 96.5 t-95 229.5zM403 469q0 -80 58 -141q58 -58 143 -58q83 0 141 58q58 61 58 141v670q0 80 -58 141q-60 57 -141 57q-83 0 -143 -57q-58 -61 -58 -141v-670z" />
<glyph unicode="&#xd4;" d="M135 469v670q0 194 137 331q138 138 332 138q95 0 180 -36.5t150 -101.5q139 -139 139 -331v-670q0 -193 -139 -332q-64 -64 -149.5 -100.5t-180.5 -36.5q-195 0 -332 137t-137 332zM138 1905l465 465l464 -465h-178l-286 286l-287 -286h-178zM260 469q0 -141 101 -241.5 t243 -100.5q141 0 241.5 100.5t100.5 241.5v670q0 141 -100.5 241.5t-241.5 100.5q-142 0 -243 -100.5t-101 -241.5v-670zM279 469v670q0 134 95 229.5t230 95.5q133 0 228.5 -95.5t95.5 -229.5v-670q0 -135 -95 -229.5t-229 -96.5q-135 2 -230 96.5t-95 229.5zM326 1714 v178l277 275l274 -275v-178l-274 275zM403 469q0 -80 58 -141q58 -58 143 -58q83 0 141 58q58 61 58 141v670q0 80 -58 141q-60 57 -141 57q-83 0 -143 -57q-58 -61 -58 -141v-670z" />
<glyph unicode="&#xd5;" d="M135 469v670q0 194 137 331q138 138 332 138q95 0 180 -36.5t150 -101.5q139 -139 139 -331v-670q0 -193 -139 -332q-64 -64 -149.5 -100.5t-180.5 -36.5q-195 0 -332 137t-137 332zM139 1950l88 90q98 97 236.5 97t236.5 -97q19 -20 46 -20.5t46 18.5l90 90v-178 q-57 -56 -135.5 -56t-134.5 56q-62 62 -149 62t-148 -62h-176zM260 469q0 -141 101 -241.5t243 -100.5q141 0 241.5 100.5t100.5 241.5v670q0 141 -100.5 241.5t-241.5 100.5q-142 0 -243 -100.5t-101 -241.5v-670zM279 469v670q0 134 95 229.5t230 95.5q133 0 228.5 -95.5 t95.5 -229.5v-670q0 -135 -95 -229.5t-229 -96.5q-135 2 -230 96.5t-95 229.5zM327 1762v176q57 57 136 57t135 -57q62 -62 149 -62t148 62h176l-88 -88q-98 -98 -236.5 -98t-236.5 98q-19 19 -46.5 19t-46.5 -19zM403 469q0 -80 58 -141q58 -58 143 -58q83 0 141 58 q58 61 58 141v670q0 80 -58 141q-60 57 -141 57q-83 0 -143 -57q-58 -61 -58 -141v-670z" />
<glyph unicode="&#xd6;" d="M135 469v670q0 194 137 331q138 138 332 138q95 0 180 -36.5t150 -101.5q139 -139 139 -331v-670q0 -193 -139 -332q-64 -64 -149.5 -100.5t-180.5 -36.5q-195 0 -332 137t-137 332zM207 1714h268v268h-268v-268zM260 469q0 -141 101 -241.5t243 -100.5 q141 0 241.5 100.5t100.5 241.5v670q0 141 -100.5 241.5t-241.5 100.5q-142 0 -243 -100.5t-101 -241.5v-670zM279 469v670q0 134 95 229.5t230 95.5q133 0 228.5 -95.5t95.5 -229.5v-670q0 -135 -95 -229.5t-229 -96.5q-135 2 -230 96.5t-95 229.5zM403 469q0 -80 58 -141 q58 -58 143 -58q83 0 141 58q58 61 58 141v670q0 80 -58 141q-60 57 -141 57q-83 0 -143 -57q-58 -61 -58 -141v-670zM733 1714h269v268h-269v-268z" />
<glyph unicode="&#xd7;" horiz-adv-x="1312" d="M133 477l326 326l-326 325h178l326 -325l-326 -326h-178zM324 289v176l325 326l326 -326v-176l-326 323zM324 1141v178l325 -326l326 326l-2 -178h2l-326 -326zM662 803l325 325h176l-325 -325l325 -326h-176z" />
<glyph unicode="&#xd8;" horiz-adv-x="1728" d="M51 18l262 265q-104 161 -104 354q0 133 51.5 253.5t138.5 207.5t207.5 138.5t253.5 51.5q195 0 354 -106l252 254v-179l-241 -241q-72 69 -166.5 108t-198.5 39q-143 0 -264 -70.5t-191.5 -191.5t-70.5 -264q0 -104 39 -198.5t108 -166.5l-254 -254h-176zM242 6l252 254 q153 -147 366 -147q106 0 203.5 41.5t167.5 111.5t111.5 167.5t41.5 203.5q0 214 -147 364l244 244h176l-252 -252q104 -161 104 -356q0 -176 -87 -325.5t-236.5 -236.5t-325.5 -87q-195 0 -356 104l-262 -264v178zM352 637q0 138 68 255t185 185t255 68q99 0 190 -38.5 t160 -105.5l-714 -716q-144 151 -144 352zM477 637q0 -84 35 -156l504 504q-72 35 -156 35q-159 -2 -271 -113.5t-112 -269.5zM508 272l717 717q67 -68 104 -159.5t37 -192.5q0 -209 -148.5 -357.5t-357.5 -148.5q-101 0 -192.5 37t-159.5 104zM702 291q72 -35 158 -35 q158 0 269.5 111.5t111.5 269.5q0 86 -35 158z" />
<glyph unicode="&#xd9;" d="M143 469v1149l127 -125v-1024q0 -141 100.5 -241.5t241.5 -100.5q142 0 243 100.5t101 241.5v1024l125 125v-1149q0 -195 -137 -332t-332 -137q-191 0 -331 137q-138 141 -138 332zM193 2200h178l486 -486l-267 88zM287 469v1024l127 125v-1149q0 -81 57 -141 q58 -58 141 -58q87 0 142 58q59 59 59 141v1149l125 -125v-1024q0 -135 -95.5 -229.5t-230.5 -96.5q-135 2 -230 96.5t-95 229.5zM383 2212v178l398 -397l88 -267z" />
<glyph unicode="&#xda;" d="M143 469v1149l127 -125v-1024q0 -141 100.5 -241.5t241.5 -100.5q142 0 243 100.5t101 241.5v1024l125 125v-1149q0 -195 -137 -332t-332 -137q-191 0 -331 137q-138 141 -138 332zM287 469v1024l127 125v-1149q0 -81 57 -141q58 -58 141 -58q87 0 142 58q59 59 59 141 v1149l125 -125v-1024q0 -135 -95.5 -229.5t-230.5 -96.5q-135 2 -230 96.5t-95 229.5zM315 1726l485 486v178l-397 -397zM327 1714l266 88l398 398h-178z" />
<glyph unicode="&#xdb;" d="M143 469v1149l127 -125v-1024q0 -141 100.5 -241.5t241.5 -100.5q142 0 243 100.5t101 241.5v1024l125 125v-1149q0 -195 -137 -332t-332 -137q-191 0 -331 137q-138 141 -138 332zM158 1909l465 465l464 -465h-178l-286 286l-287 -286h-178zM287 469v1024l127 125v-1149 q0 -81 57 -141q58 -58 141 -58q87 0 142 58q59 59 59 141v1149l125 -125v-1024q0 -135 -95.5 -229.5t-230.5 -96.5q-135 2 -230 96.5t-95 229.5zM346 1718v178l277 275l274 -275v-178l-274 275z" />
<glyph unicode="&#xdc;" d="M143 469v1149l127 -125v-1024q0 -141 100.5 -241.5t241.5 -100.5q142 0 243 100.5t101 241.5v1024l125 125v-1149q0 -195 -137 -332t-332 -137q-191 0 -331 137q-138 141 -138 332zM219 1716h268v268h-268v-268zM287 469v1024l127 125v-1149q0 -81 57 -141 q58 -58 141 -58q87 0 142 58q59 59 59 141v1149l125 -125v-1024q0 -135 -95.5 -229.5t-230.5 -96.5q-135 2 -230 96.5t-95 229.5zM745 1716h269v268h-269v-268z" />
<glyph unicode="&#xdd;" d="M145 1139v467l125 -125v-342q0 -139 98 -239t236 -105v-670l-125 -125v688q-115 35 -196 119q-138 135 -138 332zM289 1139v342l125 125v-467q0 -86 59 -142q56 -59 141 -59q83 0 142 59q57 57 57 142v467l127 -125v-342q-2 -135 -97 -230.5t-229 -95.5q-135 0 -230 95.5 t-95 230.5zM315 1728l485 486v178l-397 -397zM327 1716l266 88l398 398h-178zM623 125v670q139 4 236 104t97 240v342l127 125v-467q0 -196 -139 -332q-81 -84 -196 -119v-688z" />
<glyph unicode="&#xde;" d="M158 0v1606l125 -125v-1356zM301 125v317h326q143 0 243.5 101t100.5 243t-100.5 243t-243.5 101h-326v351l125 125v-351h201q95 0 181 -36.5t150 -100.5q138 -138 138 -332q0 -193 -138 -331t-329 -138h-203v-317zM301 461v651h326q135 0 230 -95.5t95 -230.5t-95 -230 t-230 -95h-201h-125zM426 586h203q86 3 139 59q59 59 59 141q0 83 -59 142q-56 59 -141 59h-201v-401z" />
<glyph unicode="&#xdf;" horiz-adv-x="1323" d="M78 690h127v-690l125 127v563v125h-125zM78 958h127v650h504q191 0 329 -138q140 -140 140 -331q0 -195 -140 -332q0 -1 -1 -2t-1 -2l2 -2q140 -140 140 -332t-140 -332q-137 -137 -329 -137h-152l127 127h25q141 0 241.5 100.5t100.5 241.5q0 122 -75 215t-190 121 q115 27 190 119.5t75 214.5q0 141 -100.5 241.5t-241.5 100.5h-379v-523v-124h-125zM348 127v1337h361q133 0 228 -95.5t97 -229.5q-1 -85 -48 -160t-119 -119t-148 -47h-2q-8 0 -8 -8q0 -10 8 -10q132 -3 223.5 -97.5t93.5 -228.5q-1 -135 -96 -229.5t-229 -96.5h-25 l-127 127h152v-2q81 0 141 60q57 60 57 141q0 84 -57 141q-60 60 -141 60q-54 3 -90.5 42t-36.5 93q0 55 39.5 94t95.5 39q77 3 133 59q57 57 57 142q0 81 -57 141q-60 57 -141 57v2v-2h-236v-1337z" />
<glyph unicode="&#xe0;" horiz-adv-x="1585" d="M141 4l158 387h-158l127 125h215l-178 -442zM141 659h267l380 949l383 -949h267l-127 -124h-224l-299 737l-296 -737h-224zM322 68l182 448h571l182 -448l-69 -164l-197 487h-403l-197 -487zM422 2200h178l485 -486l-266 88zM510 535l278 690l281 -690h-559zM612 2212 v178l398 -397l88 -267zM696 659h187l-95 230zM1096 516h217l125 -125h-158l158 -387l-164 70z" />
<glyph unicode="&#xe1;" horiz-adv-x="1601" d="M141 4l158 387h-158l127 125h215l-178 -442zM141 659h267l380 949l383 -949h267l-127 -124h-224l-299 737l-296 -737h-224zM322 68l182 448h571l182 -448l-69 -164l-197 487h-403l-197 -487zM479 1729l486 485v178l-398 -397zM492 1716l266 88l397 398h-178zM510 535 l278 690l281 -690h-559zM696 659h187l-95 230zM1096 516h217l125 -125h-158l158 -387l-164 70z" />
<glyph unicode="&#xe2;" horiz-adv-x="1570" d="M141 4l158 387h-158l127 125h215l-178 -442zM141 659h267l380 949l383 -949h267l-127 -124h-224l-299 737l-296 -737h-224zM322 68l182 448h571l182 -448l-69 -164l-197 487h-403l-197 -487zM324 1909l464 465l465 -465h-178l-287 286l-286 -286h-178zM510 535l278 690 l281 -690h-559zM512 1718v178l276 275l275 -275v-178l-275 275zM696 659h187l-95 230zM1096 516h217l125 -125h-158l158 -387l-164 70z" />
<glyph unicode="&#xe3;" horiz-adv-x="1581" d="M141 4l158 387h-158l127 125h215l-178 -442zM141 659h267l380 949l383 -949h267l-127 -124h-224l-299 737l-296 -737h-224zM315 1950l88 90q98 97 237 97t237 -97q19 -20 46 -20.5t46 18.5l90 90v-178q-57 -56 -136 -56t-135 56q-62 62 -148 62t-148 -62h-177zM322 68 l182 448h571l182 -448l-69 -164l-197 487h-403l-197 -487zM504 1761v176q57 57 135.5 57t134.5 -57q62 -61 149 -61t148 61h176l-88 -88q-98 -98 -236.5 -98t-236.5 98q-19 19 -46 19t-46 -19zM510 535l278 690l281 -690h-559zM696 659h187l-95 230zM1096 516h217l125 -125 h-158l158 -387l-164 70z" />
<glyph unicode="&#xe4;" horiz-adv-x="1560" d="M141 4l158 387h-158l127 125h215l-178 -442zM141 659h267l380 949l383 -949h267l-127 -124h-224l-299 737l-296 -737h-224zM322 68l182 448h571l182 -448l-69 -164l-197 487h-403l-197 -487zM391 1718h268v269h-268v-269zM510 535l278 690l281 -690h-559zM696 659h187 l-95 230zM918 1718h268v269h-268v-269zM1096 516h217l125 -125h-158l158 -387l-164 70z" />
<glyph unicode="&#xe5;" horiz-adv-x="1574" d="M141 4l158 387h-158l127 125h215l-178 -442zM141 659h267l380 949l383 -949h267l-127 -124h-224l-299 737l-296 -737h-224zM322 68l182 448h571l182 -448l-69 -164l-197 487h-403l-197 -487zM453 2034q0 138 97.5 235.5t235.5 97.5t236 -97.5t98 -235.5 q0 -139 -98 -237.5t-236 -98.5t-235.5 98.5t-97.5 237.5zM510 535l278 690l281 -690h-559zM578 2034q0 -88 61 -149.5t147 -61.5t147.5 61.5t61.5 149.5q0 86 -61.5 147.5t-147.5 61.5t-147 -61.5t-61 -147.5zM596 2034q0 78 55.5 134t134.5 56t135 -56t56 -134 q0 -80 -56 -136.5t-135 -56.5t-134.5 56.5t-55.5 136.5zM696 659h187l-95 230zM721 2034q0 -28 19 -48t46 -20q28 0 47 20t19 48q0 26 -19 45.5t-47 19.5q-27 0 -46 -19t-19 -46zM1096 516h217l125 -125h-158l158 -387l-164 70z" />
<glyph unicode="&#xe6;" horiz-adv-x="1538" d="M143 0v1137q0 192 138 333q65 65 150.5 101.5t180.5 36.5h789l-125 -127h-428h-236q-142 0 -243 -100.5t-101 -241.5v-1014zM287 125v672h450v-672h539l125 -125h-789v670h-200v-670zM287 813v326q0 133 95 228t230 97h125v-651h-450zM412 940h200v397q-84 0 -141 -57 q-59 -59 -59 -143v-197zM756 143v654h393l127 -127h-395v-402h520l-125 -125h-520zM756 813v651h520l125 -127h-520v-397h395l-127 -127h-393z" />
<glyph unicode="&#xe7;" d="M145 473v670q0 194 138 332q137 137 331 137q192 0 332 -137q137 -140 137 -332v-125l-127 125q0 142 -100.5 243t-241.5 101q-142 0 -243 -100.5t-101 -243.5v-670q0 -140 97.5 -239.5t236.5 -102.5l-84 -158l8 -4q69 -35 92 -110t-14 -144q-35 -69 -110 -92t-144 12 l-51 170l111 -57q23 -12 47.5 -5t36.5 30t4 48.5t-31 37.5l-117 63l66 125q-82 40 -135 96q-138 135 -138 330zM174 -432l170 53q46 -24 96 -24q56 0 106 29t77 81q39 72 16 153t-94 122l80 149q138 4 234.5 104t96.5 238l127 127v-127q0 -95 -36.5 -180.5t-100.5 -149.5 q-102 -102 -241 -129l-3 -6q59 -76 68 -173t-37 -187q-43 -83 -122.5 -129.5t-170.5 -46.5q-84 0 -155 39zM289 473q0 -134 95 -229.5t230 -96.5q134 2 230 97.5t96 228.5l-127 127v-127q0 -81 -57 -141q-61 -58 -142 -58q-83 0 -141 58q-59 59 -59 141v670q0 82 59 141 q56 59 141 59q83 0 142 -59q57 -60 57 -141v-125l127 125q0 135 -96 230t-230 95q-135 0 -230 -95t-95 -230v-670z" />
<glyph unicode="&#xe8;" d="M152 0v1608h933l-127 -127h-679v-1354h679l127 -127h-933zM254 2200h178l486 -486l-267 88zM297 143v672h537l124 -125h-536v-420h663l-127 -127h-661zM297 834v630h661l127 -127h-663v-379h536l-124 -124h-537zM444 2212v178l398 -397l88 -267z" />
<glyph unicode="&#xe9;" d="M152 0v1608h933l-127 -127h-679v-1354h679l127 -127h-933zM254 1726l485 486v178l-397 -397zM266 1714l266 88l398 398h-178zM297 143v672h537l124 -125h-536v-420h663l-127 -127h-661zM297 834v630h661l127 -127h-663v-379h536l-124 -124h-537z" />
<glyph unicode="&#xea;" d="M152 0v1608h933l-127 -127h-679v-1354h679l127 -127h-933zM158 1909l465 465l464 -465h-178l-286 286l-287 -286h-178zM297 143v672h537l124 -125h-536v-420h663l-127 -127h-661zM297 834v630h661l127 -127h-663v-379h536l-124 -124h-537zM346 1718v178l277 275l274 -275 v-178l-274 275z" />
<glyph unicode="&#xeb;" d="M152 0v1608h933l-127 -127h-679v-1354h679l127 -127h-933zM219 1716h268v268h-268v-268zM297 143v672h537l124 -125h-536v-420h663l-127 -127h-661zM297 834v630h661l127 -127h-663v-379h536l-124 -124h-537zM745 1716h269v268h-269v-268z" />
<glyph unicode="&#xec;" horiz-adv-x="980" d="M141 0l125 125h436l125 -125h-686zM141 268h209v1069h-209l125 127h209v-2v-1319h-209zM141 1606h686l-125 -125h-436zM145 2200h179l485 -486l-266 88zM336 2212v178l397 -397l88 -267zM494 143v1321h208l125 -127h-209v-1069h209l-125 -125h-208z" />
<glyph unicode="&#xed;" horiz-adv-x="976" d="M141 0l125 125h436l125 -125h-686zM141 268h209v1069h-209l125 127h209v-2v-1319h-209zM141 1606h686l-125 -125h-436zM143 1726l486 486v178l-398 -397zM156 1714l266 88l397 398h-178zM494 143v1321h208l125 -127h-209v-1069h209l-125 -125h-208z" />
<glyph unicode="&#xee;" horiz-adv-x="980" d="M18 1909l465 465l465 -465h-178l-287 286l-286 -286h-179zM141 0l125 125h436l125 -125h-686zM141 268h209v1069h-209l125 127h209v-2v-1319h-209zM141 1606h686l-125 -125h-436zM207 1718v178l276 275l275 -275v-178l-275 275zM494 143v1321h208l125 -127h-209v-1069 h209l-125 -125h-208z" />
<glyph unicode="&#xef;" horiz-adv-x="987" d="M88 1718h268v269h-268v-269zM141 0l125 125h436l125 -125h-686zM141 268h209v1069h-209l125 127h209v-2v-1319h-209zM141 1606h686l-125 -125h-436zM494 143v1321h208l125 -127h-209v-1069h209l-125 -125h-208zM614 1718h269v269h-269v-269z" />
<glyph unicode="&#xf0;" horiz-adv-x="1380" d="M41 670l125 125h262v-670h342q142 0 243 101.5t101 242.5v668q0 143 -101 243.5t-243 100.5h-342v-668h-262l-125 125h260v670h469q195 0 332 -140q137 -134 137 -331v-668q0 -195 -137 -332t-332 -137h-469v670h-260zM444 143v652h261l124 -125h-258v-402h199 q84 0 141 60q60 60 60 141v668q0 83 -60 143q-57 57 -141 57h-199v-399h258l-124 -125h-261v651h326q135 -2 230.5 -97t95.5 -230v-668q0 -135 -95.5 -230.5t-230.5 -95.5h-326z" />
<glyph unicode="&#xf1;" d="M137 0v1612l672 -846v842l125 -125v-1077l-670 845v-1124zM156 1948l88 90q98 97 236.5 97t236.5 -97q19 -20 46 -20.5t46 18.5l90 90v-178q-57 -56 -136 -56t-134 56q-61 62 -148 62t-149 -62h-176zM281 127v1073l671 -846v1129l125 125v-1614l-669 846v-840zM344 1760 v176q57 57 136.5 57t134.5 -57q61 -62 148 -62t149 62h176l-88 -88q-98 -98 -236.5 -98t-236.5 98q-19 19 -46.5 19t-46.5 -19z" />
<glyph unicode="&#xf2;" d="M135 469v670q0 194 137 331q138 138 332 138q95 0 180 -36.5t150 -101.5q139 -139 139 -331v-670q0 -193 -139 -332q-64 -64 -149.5 -100.5t-180.5 -36.5q-195 0 -332 137t-137 332zM254 2202h178l486 -486l-267 88zM260 469q0 -141 101 -241.5t243 -100.5 q141 0 241.5 100.5t100.5 241.5v670q0 141 -100.5 241.5t-241.5 100.5q-142 0 -243 -100.5t-101 -241.5v-670zM279 469v670q0 134 95 229.5t230 95.5q133 0 228.5 -95.5t95.5 -229.5v-670q0 -135 -95 -229.5t-229 -96.5q-135 2 -230 96.5t-95 229.5zM403 469q0 -80 58 -141 q58 -58 143 -58q83 0 141 58q58 61 58 141v670q0 80 -58 141q-60 57 -141 57q-83 0 -143 -57q-58 -61 -58 -141v-670zM444 2214v178l398 -397l88 -267z" />
<glyph unicode="&#xf3;" d="M135 469v670q0 194 137 331q138 138 332 138q95 0 180 -36.5t150 -101.5q139 -139 139 -331v-670q0 -193 -139 -332q-64 -64 -149.5 -100.5t-180.5 -36.5q-195 0 -332 137t-137 332zM254 1728l485 486v178l-397 -397zM260 469q0 -141 101 -241.5t243 -100.5 q141 0 241.5 100.5t100.5 241.5v670q0 141 -100.5 241.5t-241.5 100.5q-142 0 -243 -100.5t-101 -241.5v-670zM266 1716l266 88l398 398h-178zM279 469v670q0 134 95 229.5t230 95.5q133 0 228.5 -95.5t95.5 -229.5v-670q0 -135 -95 -229.5t-229 -96.5q-135 2 -230 96.5 t-95 229.5zM403 469q0 -80 58 -141q58 -58 143 -58q83 0 141 58q58 61 58 141v670q0 80 -58 141q-60 57 -141 57q-83 0 -143 -57q-58 -61 -58 -141v-670z" />
<glyph unicode="&#xf4;" d="M135 469v670q0 194 137 331q138 138 332 138q95 0 180 -36.5t150 -101.5q139 -139 139 -331v-670q0 -193 -139 -332q-64 -64 -149.5 -100.5t-180.5 -36.5q-195 0 -332 137t-137 332zM146 1909l465 465l464 -465h-178l-286 286l-287 -286h-178zM260 469q0 -141 101 -241.5 t243 -100.5q141 0 241.5 100.5t100.5 241.5v670q0 141 -100.5 241.5t-241.5 100.5q-142 0 -243 -100.5t-101 -241.5v-670zM279 469v670q0 134 95 229.5t230 95.5q133 0 228.5 -95.5t95.5 -229.5v-670q0 -135 -95 -229.5t-229 -96.5q-135 2 -230 96.5t-95 229.5zM334 1718 v178l277 275l274 -275v-178l-274 275zM403 469q0 -80 58 -141q58 -58 143 -58q83 0 141 58q58 61 58 141v670q0 80 -58 141q-60 57 -141 57q-83 0 -143 -57q-58 -61 -58 -141v-670z" />
<glyph unicode="&#xf5;" d="M135 469v670q0 194 137 331q138 138 332 138q95 0 180 -36.5t150 -101.5q139 -139 139 -331v-670q0 -193 -139 -332q-64 -64 -149.5 -100.5t-180.5 -36.5q-195 0 -332 137t-137 332zM137 1948l88 90q98 97 236.5 97t236.5 -97q19 -20 46 -20.5t46 18.5l90 90v-178 q-57 -56 -135.5 -56t-134.5 56q-62 62 -149 62t-148 -62h-176zM260 469q0 -141 101 -241.5t243 -100.5q141 0 241.5 100.5t100.5 241.5v670q0 141 -100.5 241.5t-241.5 100.5q-142 0 -243 -100.5t-101 -241.5v-670zM279 469v670q0 134 95 229.5t230 95.5q133 0 228.5 -95.5 t95.5 -229.5v-670q0 -135 -95 -229.5t-229 -96.5q-135 2 -230 96.5t-95 229.5zM325 1760v176q57 57 136.5 57t134.5 -57q62 -62 149 -62t148 62h176l-88 -88q-98 -98 -236.5 -98t-236.5 98q-19 19 -46.5 19t-46.5 -19zM403 469q0 -80 58 -141q58 -58 143 -58q83 0 141 58 q58 61 58 141v670q0 80 -58 141q-60 57 -141 57q-83 0 -143 -57q-58 -61 -58 -141v-670z" />
<glyph unicode="&#xf6;" d="M135 469v670q0 194 137 331q138 138 332 138q95 0 180 -36.5t150 -101.5q139 -139 139 -331v-670q0 -193 -139 -332q-64 -64 -149.5 -100.5t-180.5 -36.5q-195 0 -332 137t-137 332zM219 1716h268v268h-268v-268zM260 469q0 -141 101 -241.5t243 -100.5 q141 0 241.5 100.5t100.5 241.5v670q0 141 -100.5 241.5t-241.5 100.5q-142 0 -243 -100.5t-101 -241.5v-670zM279 469v670q0 134 95 229.5t230 95.5q133 0 228.5 -95.5t95.5 -229.5v-670q0 -135 -95 -229.5t-229 -96.5q-135 2 -230 96.5t-95 229.5zM403 469q0 -80 58 -141 q58 -58 143 -58q83 0 141 58q58 61 58 141v670q0 80 -58 141q-60 57 -141 57q-83 0 -143 -57q-58 -61 -58 -141v-670zM745 1716h269v268h-269v-268z" />
<glyph unicode="&#xf7;" horiz-adv-x="1443" d="M121 670l127 125h938l125 -125h-1190zM121 938h1190l-125 -125h-938zM582 477l135 -133l133 133l-133 135zM582 1128l135 -133l133 133l-133 136z" />
<glyph unicode="&#xf8;" horiz-adv-x="1732" d="M51 18l262 265q-104 161 -104 354q0 133 51.5 253.5t138.5 207.5t207.5 138.5t253.5 51.5q195 0 354 -106l252 254v-179l-241 -241q-72 69 -166.5 108t-198.5 39q-143 0 -264 -70.5t-191.5 -191.5t-70.5 -264q0 -104 39 -198.5t108 -166.5l-254 -254h-176zM242 6l252 254 q153 -147 366 -147q106 0 203.5 41.5t167.5 111.5t111.5 167.5t41.5 203.5q0 214 -147 364l244 244h176l-252 -252q104 -161 104 -356q0 -176 -87 -325.5t-236.5 -236.5t-325.5 -87q-195 0 -356 104l-262 -264v178zM352 637q0 138 68 255t185 185t255 68q99 0 190 -38.5 t160 -105.5l-714 -716q-144 151 -144 352zM477 637q0 -84 35 -156l504 504q-72 35 -156 35q-159 -2 -271 -113.5t-112 -269.5zM508 272l717 717q67 -68 104 -159.5t37 -192.5q0 -209 -148.5 -357.5t-357.5 -148.5q-101 0 -192.5 37t-159.5 104zM702 291q72 -35 158 -35 q158 0 269.5 111.5t111.5 269.5q0 86 -35 158z" />
<glyph unicode="&#xf9;" d="M143 469v1149l127 -125v-1024q0 -141 100.5 -241.5t241.5 -100.5q142 0 243 100.5t101 241.5v1024l125 125v-1149q0 -195 -137 -332t-332 -137q-191 0 -331 137q-138 141 -138 332zM193 2202h178l486 -486l-267 88zM287 469v1024l127 125v-1149q0 -81 57 -141 q58 -58 141 -58q87 0 142 58q59 59 59 141v1149l125 -125v-1024q0 -135 -95.5 -229.5t-230.5 -96.5q-135 2 -230 96.5t-95 229.5zM383 2214v178l398 -397l88 -267z" />
<glyph unicode="&#xfa;" d="M143 469v1149l127 -125v-1024q0 -141 100.5 -241.5t241.5 -100.5q142 0 243 100.5t101 241.5v1024l125 125v-1149q0 -195 -137 -332t-332 -137q-191 0 -331 137q-138 141 -138 332zM234 1728l485 486v178l-397 -397zM246 1716l266 88l398 398h-178zM287 469v1024l127 125 v-1149q0 -81 57 -141q58 -58 141 -58q87 0 142 58q59 59 59 141v1149l125 -125v-1024q0 -135 -95.5 -229.5t-230.5 -96.5q-135 2 -230 96.5t-95 229.5z" />
<glyph unicode="&#xfb;" d="M138 1909l465 465l464 -465h-178l-286 286l-287 -286h-178zM143 469v1149l127 -125v-1024q0 -141 100.5 -241.5t241.5 -100.5q142 0 243 100.5t101 241.5v1024l125 125v-1149q0 -195 -137 -332t-332 -137q-191 0 -331 137q-138 141 -138 332zM287 469v1024l127 125v-1149 q0 -81 57 -141q58 -58 141 -58q87 0 142 58q59 59 59 141v1149l125 -125v-1024q0 -135 -95.5 -229.5t-230.5 -96.5q-135 2 -230 96.5t-95 229.5zM326 1718v178l277 275l274 -275v-178l-274 275z" />
<glyph unicode="&#xfc;" d="M143 469v1149l127 -125v-1024q0 -141 100.5 -241.5t241.5 -100.5q142 0 243 100.5t101 241.5v1024l125 125v-1149q0 -195 -137 -332t-332 -137q-191 0 -331 137q-138 141 -138 332zM219 1716h268v268h-268v-268zM287 469v1024l127 125v-1149q0 -81 57 -141 q58 -58 141 -58q87 0 142 58q59 59 59 141v1149l125 -125v-1024q0 -135 -95.5 -229.5t-230.5 -96.5q-135 2 -230 96.5t-95 229.5zM745 1716h269v268h-269v-268z" />
<glyph unicode="&#xfd;" d="M145 1139v467l125 -125v-342q0 -139 98 -239t236 -105v-670l-125 -125v688q-115 35 -196 119q-138 135 -138 332zM213 1726l485 486v178l-397 -397zM225 1714l266 88l398 398h-178zM289 1139v342l125 125v-467q0 -86 59 -142q56 -59 141 -59q83 0 142 59q57 57 57 142 v467l127 -125v-342q-2 -135 -97 -230.5t-229 -95.5q-135 0 -230 95.5t-95 230.5zM623 125v670q139 4 236 104t97 240v342l127 125v-467q0 -196 -139 -332q-81 -84 -196 -119v-688z" />
<glyph unicode="&#xfe;" d="M158 0v1606l125 -125v-1356zM301 125v317h326q143 0 243.5 101t100.5 243t-100.5 243t-243.5 101h-326v351l125 125v-351h201q95 0 181 -36.5t150 -100.5q138 -138 138 -332q0 -193 -138 -331t-329 -138h-203v-317zM301 461v651h326q135 0 230 -95.5t95 -230.5t-95 -230 t-230 -95h-201h-125zM426 586h203q86 3 139 59q59 59 59 141q0 83 -59 142q-56 59 -141 59h-201v-401z" />
<glyph unicode="&#xff;" d="M145 1139v467l125 -125v-342q0 -139 98 -239t236 -105v-670l-125 -125v688q-115 35 -196 119q-138 135 -138 332zM217 1719h268v268h-268v-268zM289 1139v342l125 125v-467q0 -86 59 -142q56 -59 141 -59q83 0 142 59q57 57 57 142v467l127 -125v-342q-2 -135 -97 -230.5 t-229 -95.5q-135 0 -230 95.5t-95 230.5zM623 125v670q139 4 236 104t97 240v342l127 125v-467q0 -196 -139 -332q-81 -84 -196 -119v-688zM743 1719h269v268h-269v-268z" />
<glyph unicode="&#x152;" horiz-adv-x="1658" d="M137 469v668q0 191 137 331q141 138 332 138h932l-125 -125h-807q-141 0 -241.5 -101t-100.5 -243l-2 -668q2 -143 102.5 -243.5t241.5 -100.5h807l125 -125h-932q-195 0 -332 137t-137 332zM281 469v668q2 135 96 230t229 95h127v-1319h-127q-135 0 -230 95.5t-95 230.5 zM408 469q0 -87 57 -141q60 -60 141 -60v1069q-82 0 -141 -59q-57 -57 -57 -141v-668zM750 143v670h538l125 -125h-536v-420h661l-125 -125h-663zM750 831v631h663l125 -125h-661v-381h536l-125 -125h-538z" />
<glyph unicode="&#x153;" horiz-adv-x="1675" d="M137 469v668q0 191 137 331q141 138 332 138h932l-125 -125h-807q-141 0 -241.5 -101t-100.5 -243l-2 -668q2 -143 102.5 -243.5t241.5 -100.5h807l125 -125h-932q-195 0 -332 137t-137 332zM281 469v668q2 135 96 230t229 95h127v-1319h-127q-135 0 -230 95.5t-95 230.5 zM408 469q0 -87 57 -141q60 -60 141 -60v1069q-82 0 -141 -59q-57 -57 -57 -141v-668zM750 143v670h538l125 -125h-536v-420h661l-125 -125h-663zM750 831v631h663l125 -125h-661v-381h536l-125 -125h-538z" />
<glyph unicode="&#x178;" d="M145 1139v467l125 -125v-342q0 -139 98 -239t236 -105v-670l-125 -125v688q-115 35 -196 119q-138 135 -138 332zM219 2018h268v268h-268v-268zM289 1139v342l125 125v-467q0 -86 59 -142q56 -59 141 -59q83 0 142 59q57 57 57 142v467l127 -125v-342q-2 -135 -97 -230.5 t-229 -95.5q-135 0 -230 95.5t-95 230.5zM623 125v670q139 4 236 104t97 240v342l127 125v-467q0 -196 -139 -332q-81 -84 -196 -119v-688zM745 2018h269v268h-269v-268z" />
<glyph unicode="&#x2c6;" d="M158 1909l465 465l464 -465h-178l-286 286l-287 -286h-178zM346 1718v178l277 275l274 -275v-178l-274 275z" />
<glyph unicode="&#x2dc;" d="M125 1919l88 90q98 97 236.5 97t236.5 -97q19 -20 46 -20.5t46 18.5l90 90v-178q-57 -55 -135.5 -55t-134.5 55q-62 61 -149 61t-148 -61h-176zM313 1731v176q57 57 136 57t135 -57q62 -61 149 -61t148 61h176l-88 -88q-98 -98 -236.5 -98t-236.5 98q-19 19 -46.5 19 t-46.5 -19z" />
<glyph unicode="&#x2000;" horiz-adv-x="1197" />
<glyph unicode="&#x2001;" horiz-adv-x="2394" />
<glyph unicode="&#x2002;" horiz-adv-x="1197" />
<glyph unicode="&#x2003;" horiz-adv-x="2394" />
<glyph unicode="&#x2004;" horiz-adv-x="798" />
<glyph unicode="&#x2005;" horiz-adv-x="598" />
<glyph unicode="&#x2006;" horiz-adv-x="399" />
<glyph unicode="&#x2007;" horiz-adv-x="399" />
<glyph unicode="&#x2008;" horiz-adv-x="299" />
<glyph unicode="&#x2009;" horiz-adv-x="478" />
<glyph unicode="&#x200a;" horiz-adv-x="133" />
<glyph unicode="&#x2010;" horiz-adv-x="1460" d="M139 670l125 125h938l125 -125h-1188zM139 938h1188l-125 -125h-938z" />
<glyph unicode="&#x2011;" horiz-adv-x="1460" d="M139 670l125 125h938l125 -125h-1188zM139 938h1188l-125 -125h-938z" />
<glyph unicode="&#x2012;" horiz-adv-x="1460" d="M139 670l125 125h938l125 -125h-1188zM139 938h1188l-125 -125h-938z" />
<glyph unicode="&#x2013;" d="M131 670l125 125h688l125 -125h-938zM131 938h938l-125 -125h-688z" />
<glyph unicode="&#x2014;" horiz-adv-x="1497" d="M139 670l125 125h938l125 -125h-1188zM139 938h1188l-125 -125h-938z" />
<glyph unicode="&#x2018;" d="M106 1444v268h269v-268h-144v-125z" />
<glyph unicode="&#x2019;" d="M850 1444v268h268v-268l-125 -125v125h-143z" />
<glyph unicode="&#x201c;" d="M106 1444v268h269v-268h-144v-125zM449 1444l124 -125v125h144l-2 268h-266v-268z" />
<glyph unicode="&#x201d;" d="M508 1444v268h268v-268l-125 -125v125h-143zM850 1444v268h268v-268l-125 -125v125h-143z" />
<glyph unicode="&#x2022;" d="M285 793q0 138 97.5 235.5t235.5 97.5t236 -97.5t98 -235.5q0 -139 -98 -237.5t-236 -98.5t-235.5 98.5t-97.5 237.5zM410 793q0 -88 61 -149.5t147 -61.5t147.5 61.5t61.5 149.5q0 86 -61.5 147t-147.5 61t-147 -61t-61 -147zM428 793q0 78 55.5 134t134.5 56t135 -56 t56 -134q0 -80 -56 -136.5t-135 -56.5t-134.5 56.5t-55.5 136.5zM553 793q0 -28 19 -48t46 -20q28 0 47 20t19 48q0 27 -19 46t-47 19q-27 0 -46 -19t-19 -46z" />
<glyph unicode="&#x2026;" d="M66 0h268v268h-268v-268zM426 0h268v268h-268v-268zM776 0h268v268h-268v-268z" />
<glyph unicode="&#x202f;" horiz-adv-x="478" />
<glyph unicode="&#x2039;" horiz-adv-x="1665" d="M96 817l1301 752l-45 -170l-1004 -582l1004 -579l45 -170zM383 817l977 -563l172 47l-897 516l897 520l-172 45z" />
<glyph unicode="&#x203a;" horiz-adv-x="1695" d="M119 313l172 -45l977 566l-977 563l-172 -47l897 -516zM254 82l45 170l1004 582l-1004 579l-45 170l1300 -749z" />
<glyph unicode="&#x205f;" horiz-adv-x="598" />
<glyph unicode="&#x20ac;" horiz-adv-x="1832" d="M141 469l127 125h148q67 -207 244.5 -338t400.5 -131q137 0 261 52.5t218 146.5h178l-88 -88q-111 -111 -258.5 -173.5t-310.5 -62.5q-239 0 -436.5 129.5t-292.5 339.5h-191zM141 737h119q-2 23 -2 66q0 45 2 65h-119l127 125h144q-29 -95 -29 -190q0 -93 29 -191h-144z M141 1137h191q95 212 292 340.5t437 128.5q162 1 309.5 -61.5t259.5 -172.5l88 -90h-178q-94 94 -218 146.5t-261 52.5q-223 0 -400.5 -131t-244.5 -338h-148zM401 803q0 95 29 190h506l125 -125h-531q-4 -40 -4 -65q0 -20 4 -66h531l-125 -125h-506q-29 95 -29 191z M436 594h500l125 -125h-416q75 -93 184 -147t232 -54q108 0 206 41.5t173 116.5l88 88v-178q-91 -91 -212 -142t-255 -51t-254 51t-213 142q-107 107 -158 258zM436 1012q51 151 158 258q93 91 213 141.5t254 50.5t255 -50.5t212 -141.5v-178l-88 90q-75 73 -173 114 t-206 41q-124 0 -232.5 -53t-183.5 -147h416l-125 -125h-500z" />
<glyph unicode="&#x2122;" horiz-adv-x="1990" d="M111 1163l125 125v2h223v-530l-125 -125v528h-223zM111 1434h718l-124 -127h-469zM477 760v530h228l124 -127h-227v-528zM934 639v524v2v277l82 -82q79 82 194 82q80 0 144 -39q67 39 143 39q115 0 197 -82t82 -197v-524l-125 125v399q0 63 -45 108.5t-109 45.5 q-17 0 -49 -8q-69 -26 -94 -95q-22 69 -94 95q-28 8 -50 8q-63 0 -107 -45.5t-44 -108.5v-399zM1077 764v399q0 56 39 95.5t94 39.5q23 0 41 -6q42 -12 68.5 -48t26.5 -81v-207l-125 -127v334v2q0 9 -11 9q-8 0 -8 -11v-524zM1364 954v209q0 45 26 81t68 48q18 6 39 6 q57 0 96 -39.5t39 -95.5v-399l-125 -125v524q0 11 -10 11q-8 0 -8 -9v-2v-334z" />
<glyph unicode="&#x25fc;" horiz-adv-x="1607" d="M0 0v1608h1608v-1608h-1608z" />
</font>
</defs>
</svg>
